<svg xmlns="http://www.w3.org/2000/svg" width="105.910" height="103.061" viewBox="0 0 105.910 103.061" fill="none">
  <path d="M 49.342 0.481 C 50.651 1.17 51.81 1.983 52.665 3.2 C 53.22 2.933 53.713 2.649 54.23 2.307 C 55.437 1.616 56.706 1.592 58.061 1.758 C 59.413 2.373 60.462 3.328 61.246 4.586 C 61.452 5.177 61.452 5.177 61.452 5.836 C 61.674 5.763 61.896 5.691 62.125 5.616 C 63.875 5.134 65.349 5.458 66.944 6.275 C 69.263 7.971 71.012 10.22 71.557 13.085 C 71.691 15.049 71.669 16.734 70.871 18.569 C 70.65 19.003 70.65 19.003 70.679 19.456 C 70.95 19.695 71.231 19.922 71.516 20.143 C 72.582 21.056 72.966 21.852 73.163 23.225 C 73.254 24.785 72.786 26.175 71.844 27.416 C 70.788 28.553 69.388 29.601 67.818 29.853 C 67.358 29.961 67.358 29.961 67.143 30.358 C 67.083 30.51 67.022 30.662 66.959 30.818 C 66.889 30.987 66.818 31.156 66.746 31.33 C 66.64 31.596 66.64 31.596 66.532 31.868 C 66.085 32.979 65.656 33.938 64.917 34.886 C 64.035 36.159 64.146 37.455 64.198 38.953 C 64.201 39.35 64.201 39.35 64.205 39.756 C 64.227 41.41 64.227 41.41 64.747 42.962 C 67.647 45.723 73.072 46.475 76.813 47.416 C 81.556 48.612 85.943 50.317 90.011 53.068 C 90.228 53.213 90.446 53.358 90.67 53.507 C 90.67 53.652 90.34 53.205 90.999 53.754 C 91.192 53.864 90.972 53.754 91.329 53.974 C 91.939 54.243 92.135 54.658 92.615 55.113 C 92.769 55.258 92.923 55.402 93.081 55.551 C 93.241 55.706 93.402 55.861 93.567 56.02 C 93.817 56.259 93.817 56.259 94.072 56.503 C 101.025 63.202 105.61 71.757 105.91 81.544 C 105.718 87.942 103.231 93.65 98.578 98.103 C 94.262 101.752 89.288 103.384 83.669 103.009 C 77.679 102.378 72.676 99.115 68.262 95.247 C 68.038 95.065 67.814 94.883 67.582 94.695 C 65.51 92.923 63.477 90.109 63.157 87.321 C 63.113 86.043 63.355 85.101 64.088 84.043 C 64.375 83.745 64.667 83.45 64.967 83.165 C 64.866 83.034 64.765 82.904 64.661 82.769 C 62.701 80.121 61.957 77.232 62.331 73.938 C 62.826 73.256 62.931 73.142 63.649 72.84 C 63.814 72.76 63.98 72.681 64.151 72.599 C 65.894 71.863 67.715 71.699 69.58 71.521 C 69.648 71.308 69.716 71.095 69.786 70.876 C 70.02 70.203 70.02 70.203 70.239 69.984 C 70.761 69.901 70.761 69.901 71.338 69.984 C 71.425 70.164 71.513 70.345 71.603 70.531 C 71.956 71.162 71.956 71.162 72.717 71.207 C 73.011 71.207 73.305 71.2 73.599 71.189 C 73.754 71.188 73.909 71.186 74.069 71.185 C 74.564 71.178 75.058 71.165 75.553 71.151 C 75.889 71.145 76.224 71.14 76.56 71.136 C 77.382 71.124 78.204 71.105 79.027 71.082 C 79.035 70.813 79.043 70.545 79.051 70.268 C 79.268 64.354 80.33 58.148 83.178 52.889 C 83.453 52.433 83.453 52.433 83.42 51.97 C 81.283 50.985 79.1 50.366 76.83 49.773 C 76.748 50.031 76.667 50.289 76.583 50.555 C 76.229 51.62 75.808 52.651 75.383 53.689 C 74.846 55.018 74.4 56.373 73.975 57.741 C 73.84 58.165 73.689 58.583 73.534 58.999 C 72.889 59.322 72.506 59.283 71.777 59.219 C 71.409 59.096 71.044 58.963 70.682 58.823 C 66.069 57.107 61.274 56.208 56.413 55.553 C 56.121 55.514 56.121 55.514 55.823 55.474 C 52.952 55.109 50.078 55 47.186 55.004 C 47.03 55.004 46.874 55.004 46.714 55.004 C 43.846 55.006 41.018 55.194 38.165 55.484 C 37.552 55.544 36.939 55.598 36.326 55.649 C 35.976 55.682 35.976 55.682 35.62 55.714 C 35.09 55.704 35.09 55.704 34.65 55.265 C 34.527 54.781 34.425 54.291 34.335 53.8 C 34.293 53.579 34.293 53.579 34.251 53.353 C 34.193 53.038 34.135 52.724 34.078 52.409 C 33.993 51.94 33.906 51.471 33.818 51.002 C 33.445 48.988 33.144 46.972 32.893 44.94 C 31.037 45.388 29.201 45.835 27.401 46.477 C 27.534 47.691 27.844 48.758 28.238 49.91 C 29.581 54.018 30.282 58.41 30.257 62.734 C 30.439 62.703 30.621 62.672 30.808 62.64 C 32.81 62.323 34.752 62.225 36.779 62.24 C 37.007 62.24 37.007 62.24 37.239 62.241 C 39.692 62.248 42.107 62.383 44.536 62.734 C 45.381 61.498 46.108 60.309 46.637 58.903 C 46.947 58.141 47.162 57.693 47.722 57.077 C 50.973 55.916 54.473 57.686 57.401 59.054 C 62.052 61.299 67.918 64.305 71.338 68.226 C 71.272 69.171 71.272 69.171 70.898 69.544 C 70.501 69.543 70.104 69.541 69.707 69.53 C 66.199 69.437 66.199 69.437 63.1 70.876 C 61.684 72.367 60.834 74.186 60.161 76.107 C 60.088 76.312 60.015 76.517 59.94 76.728 C 58.621 80.513 57.623 84.403 56.622 88.281 C 55.427 92.895 55.427 92.895 54.642 93.49 C 52.651 94.214 50.402 94.238 48.339 93.902 C 48.149 93.871 47.958 93.841 47.762 93.81 C 44.301 93.222 40.568 91.912 37.703 89.834 C 37.276 89.519 37.276 89.519 36.754 89.221 C 34.64 87.932 32.48 86.073 31.355 83.824 C 31.216 82.578 31.236 81.507 31.936 80.442 C 32.477 79.801 33.108 79.28 33.772 78.771 C 32.712 79.065 31.977 79.502 31.108 80.171 C 30.774 80.425 30.774 80.425 30.434 80.685 C 30.23 80.851 30.027 81.017 29.817 81.187 C 29.59 81.361 29.59 81.361 29.358 81.537 C 28.746 82.31 28.731 83.04 28.643 84.002 C 28.612 84.29 28.612 84.29 28.581 84.584 C 28.536 84.995 28.494 85.407 28.453 85.818 C 28.368 86.68 28.273 87.541 28.179 88.402 C 28.132 88.833 28.086 89.264 28.04 89.695 C 27.661 93.222 27.169 96.735 26.495 100.218 C 26.46 100.4 26.425 100.583 26.389 100.771 C 26.137 102.003 26.137 102.003 25.643 102.497 C 25.094 102.552 25.094 102.552 24.545 102.497 C 24.106 102.057 24.106 102.057 24.092 101.548 C 24.267 99.776 24.538 98.031 24.847 96.277 C 25.333 93.452 25.742 90.624 26.083 87.778 C 26.106 87.588 26.129 87.397 26.152 87.201 C 26.279 86.149 26.402 85.096 26.522 84.043 C 26.336 84.187 26.151 84.33 25.959 84.478 C 25.443 84.875 24.926 85.272 24.409 85.669 C 23.994 85.987 23.581 86.308 23.17 86.633 C 21.49 87.948 19.653 88.851 17.666 89.604 C 17.445 89.688 17.445 89.688 17.22 89.774 C 13.959 90.967 10.901 90.467 7.808 89.041 C 4.489 87.269 2.089 84.264 0.819 80.748 C -0.572 75.976 -0.134 71.284 1.698 66.688 C 1.788 66.46 1.788 66.46 1.881 66.226 C 4.152 60.585 7.916 54.927 12.902 51.31 C 12.827 51.365 13.231 50.981 13.341 50.871 C 13.341 51.02 13.341 50.726 13.341 50.871 C 13.979 50.386 14.675 49.988 15.361 49.573 C 15.633 49.409 15.904 49.243 16.175 49.075 C 21.829 45.577 27.893 43.641 34.431 42.523 C 34.644 42.486 34.857 42.449 35.077 42.411 C 35.68 42.307 36.284 42.208 36.888 42.111 C 37.066 42.082 37.243 42.053 37.426 42.023 C 38.378 41.881 39.2 41.812 40.143 42.084 C 40.445 42.647 40.445 42.647 40.582 43.182 C 39.88 43.984 39.096 44.055 38.083 44.212 C 37.917 44.24 37.751 44.269 37.58 44.298 C 36.738 44.437 35.946 44.513 35.09 44.5 C 35.114 44.656 35.138 44.812 35.163 44.972 C 36.055 50.696 36.055 50.696 36.408 53.507 C 36.597 53.478 36.786 53.449 36.98 53.419 C 37.37 53.361 37.37 53.361 37.767 53.301 C 38.02 53.263 38.272 53.225 38.532 53.186 C 41.324 52.82 44.115 52.804 46.925 52.807 C 47.136 52.807 47.346 52.807 47.563 52.808 C 55.438 52.824 63.49 53.77 70.939 56.465 C 71.374 56.614 71.374 56.614 71.997 56.583 C 72.038 56.462 72.078 56.342 72.12 56.218 C 73.556 52.001 73.556 52.001 74.447 50.211 C 74.676 49.751 74.676 49.751 74.633 49.114 C 74.25 49.018 74.25 49.018 73.859 48.92 C 67.056 47.19 67.056 47.19 64.392 45.471 C 63.731 45.069 63.731 45.069 62.99 44.94 C 62.388 45.222 62.388 45.222 61.768 45.64 C 56.87 48.621 50.904 49.106 45.415 47.796 C 44.055 47.463 42.823 47.084 41.68 46.258 C 41.433 45.695 41.433 45.695 41.461 45.159 C 41.694 44.747 41.694 44.747 42.12 44.5 C 42.991 44.522 43.732 44.826 44.536 45.132 C 49.235 46.869 54.184 46.592 58.816 44.72 C 59.949 44.191 61.022 43.58 62.111 42.962 C 62.111 41.513 62.111 40.063 62.111 38.569 C 61.153 39.204 61.153 39.204 60.236 39.895 C 56.622 42.776 52.133 43.717 47.612 43.402 C 43.542 42.916 39.501 41.242 36.668 38.232 C 36.33 37.876 36.33 37.876 35.749 37.47 C 35.085 37.461 35.085 37.461 34.431 37.69 C 34.21 37.747 33.99 37.804 33.762 37.863 C 33.534 37.924 33.306 37.985 33.071 38.047 C 31.132 38.498 29.396 38.442 27.621 37.47 C 26.216 36.58 25.085 35.577 24.545 33.955 C 24.351 32.109 24.579 30.862 25.643 29.342 C 26.151 28.749 26.151 28.749 25.995 28.229 C 25.93 28.058 25.864 27.888 25.797 27.712 C 25.727 27.522 25.657 27.333 25.585 27.138 C 25.471 26.843 25.471 26.843 25.355 26.541 C 24.502 24.292 24.285 22.352 24.284 19.951 C 24.281 19.705 24.279 19.46 24.276 19.207 C 24.269 15.082 25.475 10.939 28.28 7.813 C 28.362 7.731 28.553 7.54 28.691 7.401 C 28.801 7.291 28.801 7.291 28.911 7.181 C 30.112 5.076 32.841 4.167 35.072 3.516 C 35.557 3.413 35.994 3.391 36.489 3.39 C 36.67 3.39 36.85 3.39 37.036 3.389 C 37.223 3.39 37.41 3.391 37.602 3.392 C 37.788 3.391 37.974 3.39 38.166 3.389 C 39.073 3.391 39.917 3.41 40.802 3.639 C 40.876 3.456 40.876 3.456 40.953 3.268 C 42.549 0.455 46.396 -0.751 49.342 0.481 Z M 43.218 3.419 C 42.918 3.874 42.918 3.874 42.779 4.298 C 43.161 4.72 43.483 4.982 43.987 5.259 C 44.664 5.699 44.891 5.963 45.195 6.715 C 45.364 7.84 45.379 8.633 44.742 9.598 C 43.932 10.115 43.505 10.145 42.559 10.01 C 41.941 9.68 42.133 9.708 41.653 9.378 C 41.508 9.378 41.433 9.268 41.104 9.049 C 40.884 8.829 40.728 8.765 40.582 8.472 C 40.507 8.338 40.432 8.205 40.355 8.067 C 40.121 7.545 40.055 7.118 40.005 6.55 C 39.989 6.374 39.972 6.199 39.955 6.018 C 39.945 5.885 39.934 5.753 39.923 5.616 C 37.553 4.909 35.273 5.434 33.113 6.495 C 32.632 6.763 32.233 7.037 31.795 7.374 C 31.622 7.491 31.45 7.609 31.273 7.731 C 31.155 7.83 31.037 7.93 30.916 8.033 C 30.806 8.215 30.806 8.215 30.696 8.325 C 30.586 8.545 30.586 8.545 30.515 8.647 C 28.507 9.758 27.374 12.915 26.761 15.036 C 25.856 18.577 25.938 22.39 27.181 25.827 C 27.247 26.033 27.313 26.239 27.381 26.451 C 27.713 27.4 27.713 27.4 28.457 28.021 C 28.925 28.172 28.925 28.172 29.598 28.244 C 29.749 28.642 29.749 28.642 29.817 29.122 C 29.439 29.738 29.109 29.794 28.403 29.974 C 27.503 30.258 27.248 30.541 26.742 31.319 C 26.389 32.026 26.419 32.75 26.522 33.516 C 27.158 34.74 28.091 35.639 29.378 36.152 C 31.067 36.321 32.682 36.36 34.184 35.487 C 34.881 35.168 35.419 35.061 36.188 35.054 C 36.681 35.441 37.014 35.765 37.41 36.235 C 40.321 39.404 44.42 41.234 48.721 41.46 C 53.636 41.586 57.726 39.737 61.273 36.427 C 63.153 34.434 64.284 32.445 65.083 29.841 C 65.504 28.537 65.504 28.537 66.16 28.139 C 66.347 28.101 66.533 28.063 66.724 28.024 C 66.882 27.98 67.04 27.936 67.202 27.891 C 67.357 27.849 67.512 27.807 67.672 27.763 C 69.061 27.302 70.243 26.396 70.912 25.072 C 71.229 23.867 71.16 23.004 70.541 21.887 C 69.816 21.257 69.445 21.183 68.482 21.214 C 68.155 21.381 67.836 21.561 67.521 21.749 C 65.883 22.648 63.738 22.651 61.958 22.143 C 60.863 21.62 59.926 20.902 59.255 19.896 C 58.711 20.137 58.313 20.388 57.855 20.774 C 56.623 21.713 55.267 21.845 53.763 21.653 C 53.07 21.417 52.437 21.106 51.786 20.774 C 51.46 20.666 51.46 20.666 51.127 20.555 C 50.893 20.143 50.893 20.143 50.687 19.676 C 50.542 19.458 50.397 19.241 50.248 19.017 C 49.654 19.278 49.225 19.571 48.71 19.978 C 46.612 21.473 44.172 21.686 41.68 21.433 C 40.264 21.1 39.119 20.518 37.946 19.676 C 37.808 19.594 37.808 19.484 37.808 19.594 C 37.808 19.484 37.589 19.374 37.506 19.305 C 37.352 19.197 37.198 19.019 37.039 18.907 C 35.866 17.887 35.07 16.595 34.898 15.035 C 34.889 14.754 34.879 14.473 34.87 14.184 C 35.414 14.075 35.414 14.075 35.969 13.964 C 36.296 14.503 36.617 15.043 36.918 15.596 C 38.024 17.578 39.286 18.832 41.478 19.531 C 43.467 19.98 45.377 19.784 47.172 18.797 C 48.117 18.08 49.045 17.323 49.692 16.319 C 50.028 15.941 50.028 15.941 50.619 15.886 C 50.786 15.905 50.954 15.923 51.127 15.941 C 51.203 16.184 51.203 16.184 51.28 16.431 C 51.779 17.922 52.214 18.912 53.598 19.758 C 54.499 19.963 55.288 19.917 56.179 19.676 C 57.293 18.975 57.744 18.278 58.157 17.04 C 58.244 16.603 58.322 16.164 58.376 15.722 C 59.138 15.613 59.138 15.613 59.914 15.502 C 59.941 15.682 59.967 15.862 59.995 16.048 C 60.05 16.403 60.05 16.403 60.106 16.765 C 60.16 17.117 60.16 17.117 60.214 17.476 C 60.339 18.067 60.292 18.687 60.793 19.017 C 60.903 19.199 60.903 19.199 61.013 19.309 C 61.122 19.419 61.122 19.419 61.452 19.676 C 62.644 20.503 63.774 20.937 65.236 20.693 C 66.984 20.209 68.231 19.13 69.141 17.575 C 69.924 15.832 69.866 13.869 69.196 12.097 C 68.812 11.272 68.367 10.521 67.823 9.79 C 67.646 9.512 67.646 9.512 67.466 9.227 C 66.413 8.146 65.106 7.534 63.594 7.47 C 62.592 7.522 62.024 7.846 61.232 8.472 C 60.871 8.629 60.506 8.78 60.134 8.911 C 59.803 8.655 59.803 8.655 59.475 8.252 C 59.441 7.706 59.441 7.706 59.488 7.085 C 59.52 5.96 59.371 5.379 58.596 4.518 C 57.919 3.863 57.343 3.657 56.399 3.639 C 55.26 4.011 54.375 4.564 53.763 5.616 C 53.587 6.427 53.587 6.427 53.543 7.154 C 53.108 7.154 52.673 7.154 52.225 7.154 C 52.125 6.891 52.125 6.891 52.023 6.624 C 51.195 4.529 50.52 3.263 48.403 2.305 C 46.481 1.621 44.861 2.302 43.218 3.419 Z M 41.9 6.495 C 42.136 7.135 42.291 7.545 42.779 8.033 C 42.996 8.033 43.214 8.033 43.438 8.033 C 43.378 7.497 43.378 7.497 43.218 6.934 C 42.6 6.434 42.6 6.434 41.9 6.495 Z M 23.699 47.422 C 23.448 47.525 23.448 47.525 23.193 47.63 C 23.014 47.707 22.835 47.785 22.65 47.864 C 22.464 47.944 22.279 48.023 22.087 48.105 C 19.466 49.259 17.073 50.733 14.755 52.409 C 14.613 52.512 14.47 52.615 14.323 52.721 C 13.986 52.971 13.662 53.201 13.341 53.47 C 13.341 53.32 13.157 53.624 13.341 53.47 C 13.221 53.519 12.761 53.974 12.682 54.019 C 7.851 56.752 4.558 64.024 2.934 69.077 C 2.81 69.525 2.69 69.973 2.577 70.423 C 2.503 70.692 2.503 70.692 2.427 70.966 C 1.395 75.428 2.206 79.636 4.457 83.539 C 4.861 84.183 5.308 84.626 5.872 85.142 C 6.021 85.278 6.17 85.415 6.323 85.555 C 8.541 87.468 11.049 88.54 14 88.437 C 14.761 88.362 15.463 88.21 16.197 87.998 C 16.376 87.951 16.554 87.905 16.738 87.857 C 18.818 87.219 20.573 85.923 22.348 84.702 C 22.498 84.602 22.649 84.501 22.803 84.397 C 23.172 84.144 23.53 83.875 23.886 83.604 C 23.666 83.676 24.325 83.386 24.325 83.237 C 24.442 83.188 24.754 82.913 24.874 82.863 C 25.424 82.423 25.521 82.111 26.124 81.586 C 26.38 81.366 26.636 81.147 26.893 80.927 C 27.08 80.768 27.08 80.768 27.27 80.605 C 28.026 79.966 28.805 79.363 29.598 78.771 C 29.773 78.638 29.949 78.504 30.13 78.367 C 32.18 76.861 34.038 76.019 36.628 76.354 C 37.619 76.602 38.314 77.161 39.066 77.83 C 39.25 77.993 39.25 77.993 39.438 78.159 C 39.683 78.38 39.924 78.605 40.16 78.835 C 40.822 79.441 41.268 79.725 42.181 79.749 C 43.004 79.734 43.004 79.734 43.438 79.21 C 43.547 77.989 43.32 77.026 42.559 76.066 C 42.441 75.926 42.323 75.786 42.201 75.641 C 41.824 75.159 41.698 74.768 41.68 74.158 C 41.753 74.013 41.825 73.868 41.9 73.718 C 42.565 73.656 42.893 73.642 43.444 74.039 C 43.582 74.178 43.721 74.317 43.863 74.46 C 44.787 75.318 45.499 75.638 46.761 75.764 C 47.466 75.687 47.756 75.512 48.271 75.036 C 47.968 73.422 47.086 72.395 45.832 71.36 C 45.438 71.041 45.438 71.041 44.976 71.082 C 45.048 70.575 45.121 70.067 45.195 69.544 C 46.194 69.633 47.018 69.855 47.955 70.217 C 48.827 70.546 49.524 70.784 50.468 70.643 C 51.168 70.285 51.168 70.285 51.237 69.709 C 51.037 68.61 50.369 68.041 49.51 67.4 C 43.441 63.357 35.385 63.679 28.475 64.989 C 23.875 65.922 18.079 67.442 14.659 70.862 C 14.22 70.871 13.78 70.872 13.341 70.862 C 13.163 70.492 13.163 70.492 13.121 69.984 C 16.639 66.008 23.059 64.219 28.06 63.173 C 28.326 61.997 28.25 60.941 28.129 59.755 C 28.108 59.552 28.087 59.349 28.066 59.14 C 27.713 55.899 27.081 52.82 26.069 49.718 C 25.994 49.486 25.919 49.254 25.842 49.016 C 25.733 48.695 25.733 48.695 25.622 48.369 C 25.557 48.178 25.493 47.988 25.426 47.792 C 25.004 46.965 24.434 47.119 23.699 47.422 Z M 85.397 53.068 C 82.305 58.603 80.929 64.976 81.223 71.302 C 81.715 71.548 82.092 71.595 82.638 71.664 C 82.834 71.69 83.031 71.716 83.234 71.743 C 83.644 71.796 84.054 71.848 84.465 71.899 C 86.386 72.156 88.245 72.489 89.791 73.718 C 90.575 75.287 89.909 77.737 89.646 79.418 C 89.512 80.07 89.512 80.07 89.791 80.528 C 89.959 80.624 90.126 80.719 90.299 80.817 C 91.523 81.585 91.971 82.646 92.372 83.988 C 92.42 84.144 92.468 84.299 92.517 84.458 C 92.849 85.597 92.973 86.589 92.867 87.778 C 92.504 87.851 92.142 87.923 91.768 87.998 C 91.318 87.055 91.027 86.162 90.793 85.142 C 90.534 84.045 90.19 83.224 89.571 82.286 C 89.354 82.358 89.136 82.431 88.912 82.506 C 88.707 83.029 88.707 83.029 88.583 83.673 C 88.501 84.029 88.501 84.029 88.418 84.392 C 88.337 84.763 88.337 84.763 88.253 85.142 C 88.146 85.614 88.036 86.085 87.924 86.556 C 87.876 86.764 87.829 86.972 87.78 87.187 C 87.577 87.832 87.325 88.325 86.935 88.876 C 85.873 89.384 84.794 89.53 83.653 89.188 C 81.751 88.373 80.588 86.596 79.537 84.889 C 79.239 84.422 79.239 84.422 78.587 84.043 C 78.029 83.97 78.029 83.97 77.489 84.043 C 76.957 84.575 76.917 84.844 76.83 85.581 C 76.896 86.134 76.896 86.134 77.036 86.68 C 77.213 87.433 77.293 88.102 77.269 88.876 C 76.907 88.949 76.544 89.021 76.171 89.096 C 75.268 87.902 74.387 86.695 73.519 85.475 C 72.742 84.462 72.742 84.462 71.667 83.824 C 71.1 83.779 71.1 83.779 70.61 84.112 C 70.038 85.024 70.026 85.854 70.239 86.899 C 70.702 87.752 71.315 88.414 71.997 89.096 C 72.024 89.673 72.024 89.673 71.997 90.195 C 71.025 90.477 71.025 90.477 70.484 90.207 C 69.251 89.098 68.337 87.824 67.406 86.462 C 66.98 85.811 66.98 85.811 66.505 85.361 C 65.86 85.442 65.656 85.551 65.187 86.021 C 64.959 87.844 65.737 89.394 66.834 90.812 C 67.089 91.12 67.345 91.427 67.603 91.732 C 67.743 91.923 67.884 92.113 68.029 92.309 C 68.699 93.08 69.453 93.718 70.239 94.369 C 70.349 94.46 70.458 94.551 70.571 94.645 C 72.407 96.168 74.275 97.442 76.39 98.543 C 76.613 98.662 76.835 98.782 77.064 98.905 C 81.514 101.144 86.283 101.641 91.038 100.187 C 93.164 99.483 94.897 98.443 96.601 97.005 C 96.726 96.912 96.851 96.818 96.98 96.722 C 99.109 95.077 100.719 92.585 101.874 90.195 C 102.022 89.912 102.022 89.912 102.173 89.624 C 104.756 84.451 104.029 77.826 102.309 72.485 C 101.348 69.674 99.982 67.1 98.386 64.601 C 98.282 64.437 98.177 64.272 98.069 64.103 C 97.812 63.711 97.62 63.403 97.343 63.026 C 97.198 63.026 97.163 62.697 97.013 62.697 C 96.953 62.567 96.856 62.501 96.794 62.367 C 96.548 61.903 96.135 61.743 95.793 61.347 C 95.623 61.149 95.623 61.149 95.449 60.947 C 95.331 60.812 95.213 60.677 95.091 60.537 C 94.975 60.402 94.858 60.266 94.738 60.127 C 93.844 59.084 93.844 59.084 92.867 58.121 C 92.722 58.121 92.473 57.637 92.537 57.709 C 93.196 58.446 92.427 57.819 92.208 57.462 C 91.85 57.131 91.476 56.818 91.095 56.514 C 90.876 56.34 90.657 56.165 90.431 55.985 C 90.22 55.82 90.009 55.655 89.791 55.484 C 89.63 55.358 89.468 55.231 89.302 55.101 C 87.525 53.628 87.525 53.628 85.397 53.068 Z M 48.71 58.999 C 48.71 59.595 48.812 59.975 49.228 60.41 C 52.909 63.33 57.914 64.43 62.331 65.727 C 62.522 65.784 62.714 65.841 62.911 65.9 C 63.086 65.95 63.262 66 63.443 66.052 C 63.595 66.095 63.747 66.139 63.904 66.184 C 64.357 66.289 64.357 66.289 64.967 66.029 C 63.499 64.861 61.932 63.918 60.317 62.972 C 59.96 62.761 59.607 62.545 59.254 62.327 C 54.222 59.199 54.222 59.199 48.71 58.999 Z M 47.612 61.855 C 46.914 62.573 46.733 62.805 46.733 63.832 C 46.932 63.926 47.131 64.019 47.336 64.115 C 49.6 65.195 51.787 66.275 52.884 68.666 C 53.172 69.548 53.13 69.902 52.843 70.794 C 52.369 71.66 52.066 72.029 51.119 72.316 C 50.685 72.428 50.247 72.525 49.809 72.62 C 49.844 72.91 49.844 72.91 49.88 73.206 C 49.906 73.461 49.933 73.716 49.96 73.979 C 49.988 74.231 50.016 74.484 50.045 74.744 C 50.023 75.73 49.684 76.259 48.999 76.945 C 47.859 77.592 46.709 77.697 45.415 77.673 C 45.383 77.998 45.383 77.998 45.35 78.33 C 45.317 78.611 45.284 78.893 45.25 79.183 C 45.22 79.463 45.189 79.744 45.158 80.032 C 44.976 80.748 44.976 80.748 44.547 81.052 C 44.324 81.119 44.324 81.119 44.097 81.187 C 43.879 81.296 43.879 81.296 43.657 81.407 C 40.804 81.651 40.804 81.651 39.618 80.842 C 39.013 80.307 38.472 79.713 37.944 79.103 C 37.524 78.713 37.524 78.713 36.951 78.786 C 36.352 79.012 36.08 79.234 35.653 79.705 C 35.17 80.225 34.704 80.664 34.129 81.078 C 33.494 81.592 33.494 81.592 33.319 82.396 C 33.334 83.276 33.46 83.573 33.991 84.263 C 34.222 84.566 34.222 84.566 34.458 84.875 C 35.141 85.69 35.949 86.271 36.82 86.872 C 37.067 87.043 37.067 87.043 37.318 87.218 C 41.293 89.933 45.818 91.984 50.701 92.021 C 50.937 92.023 50.937 92.023 51.177 92.024 C 52.065 92.012 52.762 91.941 53.543 91.513 C 53.841 90.988 53.841 90.988 54.004 90.344 C 54.075 90.106 54.147 89.867 54.22 89.622 C 54.291 89.367 54.362 89.112 54.436 88.849 C 54.512 88.588 54.589 88.327 54.667 88.058 C 55.134 86.448 55.557 84.83 55.95 83.201 C 58.73 71.898 58.73 71.898 62.77 68.666 C 62.993 68.449 63.213 68.23 63.429 68.006 C 61.812 67.453 60.196 66.921 58.553 66.449 C 50.548 64.132 50.548 64.132 48.271 61.855 C 48.053 61.855 47.836 61.855 47.612 61.855 Z M 71.557 74.597 C 70.885 74.748 70.885 74.748 70.239 74.597 C 69.869 74.038 69.869 74.038 69.58 73.499 C 67.884 73.701 66.317 73.906 64.747 74.597 C 64.82 74.742 64.892 74.887 64.967 75.036 C 65.605 75.209 66.228 75.351 66.875 75.476 C 67.071 75.514 67.267 75.552 67.469 75.591 C 71.075 76.26 74.707 76.459 78.368 76.354 C 78.652 76.348 78.937 76.341 79.231 76.335 C 81.04 76.259 82.802 76.018 84.587 75.723 C 84.809 75.687 85.031 75.652 85.259 75.615 C 85.467 75.579 85.675 75.542 85.889 75.505 C 86.075 75.473 86.261 75.441 86.452 75.408 C 86.995 75.237 87.232 75.027 87.594 74.597 C 84.474 73.072 80.734 73.22 77.335 73.19 C 76.931 73.185 76.528 73.178 76.124 73.167 C 75.536 73.153 74.948 73.147 74.359 73.142 C 74.179 73.136 73.999 73.13 73.813 73.124 C 72.518 73.129 72.2 73.423 71.557 74.597 Z M 64.308 77.013 C 64.862 79.571 65.845 81.341 67.79 83.099 C 68.238 83.432 68.238 83.432 68.732 83.347 C 69.284 83.101 69.61 82.723 70.02 82.286 C 70.782 81.904 71.602 81.965 72.436 82.066 C 73.136 82.437 73.136 82.437 73.754 82.945 C 73.877 83.045 74.001 83.145 74.127 83.248 C 74.446 83.509 74.76 83.775 75.072 84.043 C 75.235 83.835 75.399 83.627 75.567 83.412 C 76.113 82.714 76.63 82.345 77.521 82.22 C 78.629 82.214 79.414 82.283 80.345 82.945 C 81.007 83.695 81.489 84.526 81.992 85.389 C 82.083 85.534 82.201 85.724 82.294 85.873 C 82.396 86.036 82.404 85.983 82.514 86.093 C 82.514 86.203 82.673 86.287 82.734 86.422 C 83.011 86.933 83.389 86.998 83.86 87.339 C 84.621 87.557 84.621 87.557 85.397 87.558 C 85.987 87.116 86.152 86.735 86.274 86.021 C 86.306 85.846 86.338 85.671 86.371 85.491 C 86.403 85.303 86.435 85.115 86.468 84.922 C 86.792 83.157 87.193 81.434 87.688 79.709 C 87.946 78.783 88.089 77.985 88.034 77.013 C 86.935 77.113 85.866 77.265 84.783 77.473 C 82.643 77.88 80.543 78.057 78.368 78.112 C 78.198 78.117 78.029 78.122 77.854 78.127 C 73.914 78.224 69.825 78.125 65.993 77.142 C 65.412 77.015 64.901 76.99 64.308 77.013 Z" fill="currentColor" fill-rule="nonzero"></path>
</svg>