<svg xmlns="http://www.w3.org/2000/svg" width="54" height="34.200" viewBox="0 0 54 34.200" fill="none">
  <path d="M 5.4 0 L 5.4 1.5 L 48.6 1.5 L 48.6 0 L 48.6 -1.5 L 5.4 -1.5 L 5.4 0 Z M 48.6 0 L 48.6 1.5 C 50.754 1.5 52.5 3.246 52.5 5.4 L 54 5.4 L 55.5 5.4 C 55.5 1.589 52.411 -1.5 48.6 -1.5 L 48.6 0 Z M 54 5.4 L 52.5 5.4 L 52.5 28.8 L 54 28.8 L 55.5 28.8 L 55.5 5.4 L 54 5.4 Z M 54 28.8 L 52.5 28.8 C 52.5 30.954 50.754 32.7 48.6 32.7 L 48.6 34.2 L 48.6 35.7 C 52.411 35.7 55.5 32.611 55.5 28.8 L 54 28.8 Z M 48.6 34.2 L 48.6 32.7 L 5.4 32.7 L 5.4 34.2 L 5.4 35.7 L 48.6 35.7 L 48.6 34.2 Z M 5.4 34.2 L 5.4 32.7 C 3.246 32.7 1.5 30.954 1.5 28.8 L 0 28.8 L -1.5 28.8 C -1.5 32.611 1.589 35.7 5.4 35.7 L 5.4 34.2 Z M 0 28.8 L 1.5 28.8 L 1.5 5.4 L 0 5.4 L -1.5 5.4 L -1.5 28.8 L 0 28.8 Z M 0 5.4 L 1.5 5.4 C 1.5 3.246 3.246 1.5 5.4 1.5 L 5.4 0 L 5.4 -1.5 C 1.589 -1.5 -1.5 1.589 -1.5 5.4 L 0 5.4 Z" fill="currentColor" fill-rule="nonzero"></path>
</svg>