<svg xmlns="http://www.w3.org/2000/svg" width="21.600" height="16.200" viewBox="0 0 21.600 16.200" fill="none">
  <path d="M 0 0 L 0 -1.5 C -0.455 -1.5 -0.885 -1.293 -1.17 -0.939 C -1.455 -0.584 -1.563 -0.119 -1.464 0.325 L 0 0 Z M 3.6 16.2 L 2.136 16.525 C 2.288 17.212 2.897 17.7 3.6 17.7 L 3.6 16.2 Z M 18 16.2 L 18 17.7 C 18.703 17.7 19.312 17.212 19.464 16.525 L 18 16.2 Z M 21.6 0 L 23.064 0.325 C 23.163 -0.119 23.055 -0.584 22.77 -0.939 C 22.485 -1.293 22.055 -1.5 21.6 -1.5 L 21.6 0 Z M 0 0 L -1.464 0.325 L 2.136 16.525 L 3.6 16.2 L 5.064 15.875 L 1.464 -0.325 L 0 0 Z M 3.6 16.2 L 3.6 17.7 L 18 17.7 L 18 16.2 L 18 14.7 L 3.6 14.7 L 3.6 16.2 Z M 18 16.2 L 19.464 16.525 L 23.064 0.325 L 21.6 0 L 20.136 -0.325 L 16.536 15.875 L 18 16.2 Z M 21.6 0 L 21.6 -1.5 L 0 -1.5 L 0 0 L 0 1.5 L 21.6 1.5 L 21.6 0 Z" fill="currentColor" fill-rule="nonzero"></path>
</svg>