<svg width="1378" height="1378" viewBox="0 0 1378 1378" fill="none" xmlns="http://www.w3.org/2000/svg">
<path d="M654.55 189.475C667.377 196.224 678.739 204.197 687.116 216.12C692.562 213.506 697.388 210.718 702.457 207.373C714.288 200.594 726.725 200.36 740.002 201.99C753.255 208.014 763.541 217.375 771.222 229.712C773.241 235.498 773.241 235.498 773.241 241.957C775.417 241.247 777.593 240.536 779.835 239.804C796.99 235.079 811.435 238.253 827.069 246.264C849.798 262.886 866.939 284.922 872.284 313.011C873.593 332.251 873.379 348.772 865.556 366.755C863.389 371.008 863.389 371.008 863.672 375.451C866.329 377.787 869.084 380.013 871.881 382.18C882.325 391.127 886.094 398.927 888.021 412.391C888.909 427.681 884.328 441.297 875.094 453.468C864.746 464.612 851.018 474.879 835.632 477.347C831.129 478.406 831.129 478.406 829.021 482.296C828.427 483.785 827.833 485.274 827.22 486.808C826.529 488.462 825.838 490.117 825.126 491.821C824.089 494.435 824.089 494.435 823.032 497.103C818.653 507.986 814.444 517.384 807.203 526.675C798.562 539.152 799.646 551.857 800.155 566.541C800.188 570.434 800.188 570.434 800.222 574.405C800.437 590.62 800.437 590.62 805.538 605.836C833.962 632.894 887.128 640.259 923.792 649.482C970.281 661.203 1013.28 677.915 1053.15 704.879C1055.28 706.3 1057.41 707.721 1059.61 709.186C1059.61 710.607 1056.38 706.225 1062.84 711.608C1064.72 712.684 1062.57 711.608 1066.07 713.761C1072.04 716.392 1073.97 720.461 1078.67 724.922C1080.18 726.34 1081.69 727.759 1083.24 729.22C1084.81 730.736 1086.38 732.251 1088 733.812C1090.45 736.154 1090.45 736.154 1092.95 738.542C1161.1 804.208 1206.03 888.05 1208.98 983.978C1207.09 1046.68 1182.72 1102.63 1137.12 1146.27C1094.81 1182.03 1046.06 1198.02 990.988 1194.35C932.281 1188.17 883.247 1156.18 839.988 1118.28C837.789 1116.49 835.591 1114.7 833.326 1112.86C813.013 1095.5 793.085 1067.92 789.953 1040.6C789.525 1028.07 791.889 1018.83 799.078 1008.47C801.889 1005.54 804.75 1002.66 807.691 999.857C806.703 998.578 805.714 997.298 804.696 995.98C785.486 970.03 778.193 941.711 781.853 909.426C786.705 902.738 787.739 901.622 794.772 898.661C796.396 897.883 798.019 897.106 799.692 896.306C816.781 889.089 834.622 887.485 852.906 885.742C853.572 883.655 854.239 881.568 854.925 879.417C857.213 872.823 857.213 872.823 859.366 870.67C864.479 869.863 864.479 869.863 870.131 870.67C870.99 872.441 871.848 874.213 872.733 876.038C876.195 882.218 876.195 882.218 883.649 882.658C886.531 882.656 889.413 882.596 892.293 882.487C893.814 882.472 895.334 882.456 896.9 882.441C901.75 882.381 906.596 882.245 911.444 882.108C914.734 882.054 918.024 882.005 921.314 881.961C929.375 881.843 937.432 881.657 945.491 881.436C945.571 878.802 945.652 876.168 945.735 873.454C947.853 815.496 958.263 754.672 986.181 703.13C988.876 698.658 988.876 698.658 988.553 694.114C967.607 684.462 946.215 678.394 923.959 672.582C923.16 675.114 922.361 677.645 921.537 680.253C918.076 690.686 913.949 700.796 909.776 710.962C904.516 723.989 900.147 737.271 895.979 750.683C894.656 754.832 893.173 758.929 891.663 763.014C885.338 766.176 881.581 765.793 874.438 765.167C870.83 763.96 867.255 762.656 863.706 761.29C818.495 744.468 771.496 735.652 723.853 729.237C720.991 728.85 720.991 728.85 718.07 728.456C689.935 724.885 661.763 723.82 633.422 723.854C631.894 723.853 630.365 723.852 628.791 723.851C600.689 723.87 572.967 725.716 545.009 728.564C539.001 729.143 532.993 729.674 526.977 730.179C523.555 730.495 523.555 730.495 520.063 730.818C514.866 730.717 514.866 730.717 510.559 726.411C509.35 721.667 508.354 716.868 507.464 712.054C507.059 709.884 507.059 709.884 506.645 707.67C506.072 704.589 505.508 701.506 504.952 698.423C504.12 693.822 503.263 689.226 502.401 684.631C498.743 664.893 495.793 645.137 493.334 625.214C475.149 629.61 457.147 633.985 439.506 640.286C440.809 652.182 443.854 662.634 447.715 673.928C460.875 714.186 467.74 757.235 467.497 799.617C469.281 799.312 471.065 799.008 472.903 798.694C492.522 795.587 511.55 794.625 531.418 794.772C533.653 794.778 533.653 794.778 535.933 794.784C559.968 794.856 583.645 796.181 607.45 799.617C615.728 787.499 622.855 775.846 628.039 762.072C631.074 754.597 633.187 750.205 638.67 744.174C670.541 732.791 704.844 750.145 733.542 763.552C779.12 785.554 836.612 815.015 870.131 853.445C869.485 862.703 869.485 862.703 865.825 866.364C861.933 866.355 858.041 866.329 854.151 866.221C819.769 865.316 819.769 865.316 789.389 879.417C775.514 894.028 767.183 911.862 760.591 930.688C759.875 932.697 759.16 934.705 758.422 936.774C745.492 973.866 735.717 1011.99 725.902 1050C714.191 1095.23 714.191 1095.23 706.494 1101.05C686.981 1108.16 664.941 1108.39 644.726 1105.09C642.859 1104.8 640.992 1104.5 639.068 1104.19C605.149 1098.43 568.561 1085.59 540.476 1065.23C536.297 1062.13 536.297 1062.13 531.174 1059.22C510.453 1046.58 489.284 1028.36 478.263 1006.32C476.901 994.112 477.09 983.606 483.957 973.171C489.255 966.895 495.446 961.78 501.947 956.795C491.559 959.679 484.36 963.962 475.84 970.521C472.568 973.011 472.568 973.011 469.229 975.551C467.237 977.177 465.244 978.804 463.191 980.479C460.962 982.176 460.962 982.176 458.688 983.908C452.685 991.48 452.548 998.631 451.685 1008.07C451.38 1010.89 451.38 1010.89 451.069 1013.76C450.636 1017.8 450.221 1021.83 449.82 1025.87C448.981 1034.32 448.057 1042.75 447.136 1051.19C446.675 1055.42 446.219 1059.64 445.767 1063.86C442.052 1098.43 437.233 1132.86 430.625 1166.99C430.283 1168.78 429.942 1170.57 429.59 1172.41C427.119 1184.49 427.119 1184.49 422.281 1189.33C416.898 1189.87 416.898 1189.87 411.516 1189.33C407.209 1185.03 407.209 1185.03 407.08 1180.04C408.789 1162.66 411.451 1145.56 414.476 1128.37C419.242 1100.69 423.25 1072.97 426.588 1045.07C426.812 1043.21 427.037 1041.34 427.269 1039.42C428.507 1029.11 429.716 1018.79 430.894 1008.47C429.073 1009.87 427.252 1011.28 425.376 1012.73C420.319 1016.63 415.255 1020.51 410.187 1024.4C406.114 1027.52 402.065 1030.67 398.042 1033.85C381.574 1046.74 363.567 1055.59 344.096 1062.97C341.933 1063.79 341.933 1063.79 339.727 1064.63C307.763 1076.33 277.795 1071.43 247.474 1057.45C214.948 1040.09 191.427 1010.63 178.978 976.173C165.346 929.402 169.638 883.419 187.591 838.373C188.477 836.131 188.477 836.131 189.381 833.844C211.647 778.554 248.539 723.096 297.4 687.654C296.666 688.189 300.63 684.425 301.706 683.348C301.706 681.927 301.706 684.812 301.706 683.348C307.96 678.594 314.781 674.689 321.503 670.63C324.17 669.015 326.829 667.386 329.48 665.746C384.894 631.464 444.327 612.49 508.406 601.529C510.496 601.165 512.585 600.801 514.737 600.426C520.651 599.411 526.569 598.439 532.494 597.492C534.233 597.207 535.971 596.921 537.762 596.628C547.096 595.236 555.145 594.56 564.388 597.223C567.348 602.74 567.348 602.74 568.694 607.989C561.816 615.851 554.132 616.547 544.202 618.081C542.576 618.36 540.949 618.639 539.273 618.927C531.017 620.291 523.254 621.036 514.866 620.907C515.104 622.434 515.342 623.961 515.588 625.534C524.328 681.628 524.328 681.628 527.784 709.186C529.636 708.9 531.487 708.614 533.394 708.319C537.212 707.749 537.212 707.749 541.107 707.167C543.58 706.792 546.053 706.418 548.601 706.032C575.964 702.445 603.32 702.288 630.865 702.323C632.928 702.325 634.992 702.327 637.117 702.329C714.295 702.492 793.216 711.758 866.227 738.172C870.485 739.635 870.485 739.635 876.591 739.329C876.991 738.149 877.391 736.968 877.803 735.752C891.876 694.418 891.876 694.418 900.603 676.88C902.849 672.37 902.849 672.37 902.428 666.123C898.673 665.182 898.673 665.182 894.842 664.222C828.17 647.272 828.17 647.272 802.056 630.42C795.58 626.481 795.58 626.481 788.313 625.214C782.411 627.98 782.411 627.98 776.336 632.077C728.337 661.294 669.86 666.05 616.063 653.204C602.734 649.947 590.656 646.232 579.459 638.132C577.037 632.615 577.037 632.615 577.306 627.367C579.594 623.33 579.594 623.33 583.766 620.907C592.301 621.121 599.569 624.096 607.45 627.098C653.502 644.126 702.008 641.413 747.403 623.061C758.511 617.881 769.031 611.888 779.7 605.836C779.7 591.625 779.7 577.414 779.7 562.773C770.315 569.003 770.315 569.003 761.323 575.768C725.9 604.005 681.902 613.234 637.594 610.142C597.709 605.381 558.096 588.969 530.331 559.475C527.025 555.987 527.025 555.987 521.325 552.007C514.824 551.918 514.824 551.918 508.406 554.161C506.244 554.721 504.082 555.282 501.854 555.86C499.62 556.453 497.386 557.047 495.084 557.659C476.071 562.082 459.059 561.528 441.659 552.007C427.895 543.282 416.812 533.448 411.516 517.557C409.614 499.465 411.846 487.235 422.281 472.342C427.252 466.525 427.252 466.525 425.727 461.435C425.087 459.761 424.446 458.087 423.787 456.362C423.103 454.508 422.418 452.654 421.714 450.743C420.596 447.846 420.596 447.846 419.455 444.889C411.093 422.848 408.972 403.836 408.959 380.296C408.932 377.892 408.906 375.489 408.879 373.012C408.808 332.575 420.628 291.976 448.119 261.336C448.926 260.528 450.798 258.656 452.156 257.298C453.232 256.222 453.232 256.222 454.309 255.145C466.078 234.514 492.823 225.604 514.69 219.22C519.444 218.216 523.727 217.994 528.583 217.987C530.353 217.984 532.122 217.982 533.945 217.979C535.776 217.987 537.606 217.995 539.492 218.004C541.314 217.996 543.136 217.987 545.014 217.979C553.901 217.993 562.181 218.184 570.847 220.426C571.58 218.628 571.58 218.628 572.327 216.793C587.976 189.221 625.68 177.404 654.55 189.475ZM594.531 218.273C591.588 222.731 591.588 222.731 590.225 226.886C593.967 231.022 597.132 233.591 602.067 236.305C608.703 240.618 610.931 243.203 613.909 250.57C615.563 261.598 615.711 269.372 609.469 278.83C601.526 283.899 597.347 284.192 588.072 282.867C582.016 279.637 583.9 279.906 579.19 276.677C577.769 276.677 577.037 275.6 573.807 273.447C571.654 271.294 570.129 270.666 568.694 267.795C567.961 266.485 567.228 265.175 566.473 263.825C564.174 258.707 563.534 254.527 563.042 248.955C562.881 247.234 562.72 245.513 562.554 243.74C562.449 242.442 562.343 241.143 562.234 239.804C539.01 232.877 516.662 238.023 495.488 248.417C490.781 251.04 486.862 253.727 482.569 257.029C480.881 258.184 479.194 259.339 477.455 260.528C476.301 261.505 475.146 262.482 473.956 263.489C472.88 265.275 472.88 265.275 471.803 266.351C470.727 268.505 470.727 268.505 470.029 269.511C450.348 280.393 439.248 311.341 433.237 332.13C424.368 366.836 425.168 404.204 437.353 437.892C438 439.91 438.647 441.927 439.313 444.006C442.565 453.311 442.565 453.311 449.86 459.389C454.447 460.873 454.447 460.873 461.038 461.576C462.518 465.479 462.518 465.479 463.191 470.189C459.478 476.221 456.245 476.772 449.33 478.532C440.505 481.319 438.004 484.093 433.047 491.72C429.584 498.645 429.885 505.74 430.894 513.251C437.122 525.246 446.271 534.06 458.884 539.089C475.438 540.746 491.266 541.125 505.984 532.57C512.82 529.441 518.089 528.397 525.631 528.323C530.463 532.116 533.729 535.292 537.608 539.896C566.139 570.958 606.315 588.893 648.46 591.109C696.64 592.34 736.725 574.224 771.491 541.78C789.912 522.251 801 502.752 808.831 477.234C812.955 464.454 812.955 464.454 819.39 460.55C821.213 460.178 823.037 459.806 824.916 459.423C826.462 458.993 828.008 458.563 829.6 458.119C831.119 457.706 832.637 457.292 834.201 456.866C847.817 452.343 859.399 443.464 865.96 430.49C869.066 418.685 868.386 410.224 862.326 399.27C855.221 393.1 851.581 392.372 842.141 392.676C838.943 394.317 835.807 396.082 832.721 397.924C816.671 406.737 795.642 406.764 778.203 401.785C767.468 396.662 758.286 389.622 751.709 379.757C746.379 382.127 742.481 384.583 737.983 388.37C725.912 397.567 712.624 398.864 697.881 396.982C691.086 394.672 684.886 391.62 678.503 388.37C675.306 387.304 675.306 387.304 672.044 386.217C669.756 382.18 669.756 382.18 667.738 377.604C666.316 375.473 664.895 373.341 663.431 371.145C657.612 373.705 653.402 376.573 648.359 380.565C627.793 395.218 603.882 397.309 579.459 394.829C565.581 391.564 554.352 385.858 542.856 377.604C541.511 376.797 541.511 375.72 541.511 376.797C541.511 375.72 539.357 374.644 538.55 373.973C537.04 372.907 535.53 371.166 533.975 370.068C522.477 360.071 514.672 347.405 512.982 332.12C512.893 329.366 512.804 326.613 512.713 323.776C518.042 322.71 518.042 322.71 523.478 321.623C526.684 326.907 529.831 332.193 532.789 337.62C543.619 357.047 555.993 369.329 577.474 376.183C596.966 380.587 615.694 378.661 633.288 368.992C642.55 361.961 651.643 354.546 657.981 344.702C661.278 341.001 661.278 341.001 667.065 340.463C668.708 340.641 670.351 340.818 672.044 341.001C672.789 343.378 672.789 343.378 673.549 345.804C678.432 360.414 682.7 370.121 696.266 378.412C705.098 380.419 712.826 379.963 721.566 377.604C732.478 370.733 736.899 363.903 740.944 351.767C741.8 347.486 742.568 343.182 743.097 338.848C750.557 337.782 750.557 337.782 758.169 336.695C758.43 338.46 758.691 340.225 758.959 342.044C759.501 345.525 759.501 345.525 760.053 349.075C760.577 352.523 760.577 352.523 761.113 356.039C762.329 361.837 761.873 367.909 766.781 371.145C767.858 372.931 767.858 372.931 768.934 374.008C770.011 375.084 770.011 375.084 773.241 377.604C784.921 385.709 796.003 389.959 810.332 387.571C827.464 382.832 839.679 372.251 848.6 357.015C856.272 339.929 855.705 320.694 849.138 303.321C845.379 295.234 841.015 287.88 835.681 280.714C833.949 277.983 833.949 277.983 832.182 275.196C821.861 264.603 809.059 258.598 794.234 257.971C784.412 258.479 778.845 261.661 771.088 267.795C767.543 269.336 763.967 270.815 760.322 272.101C757.084 269.586 757.084 269.586 753.863 265.642C753.535 260.284 753.535 260.284 753.997 254.203C754.303 243.175 752.85 237.483 745.25 229.039C738.612 222.622 732.965 220.604 723.719 220.426C712.555 224.068 703.875 229.494 697.881 239.804C696.154 247.749 696.154 247.749 695.728 254.876C691.465 254.876 687.202 254.876 682.809 254.876C681.831 252.303 681.831 252.303 680.833 249.678C672.714 229.145 666.096 216.742 645.348 207.348C626.509 200.643 610.636 207.319 594.531 218.273ZM581.613 248.417C583.925 254.694 585.441 258.705 590.225 263.489C592.357 263.489 594.488 263.489 596.684 263.489C596.102 258.241 596.102 258.241 594.531 252.723C588.47 247.82 588.47 247.82 581.613 248.417ZM403.223 649.546C400.767 650.555 400.767 650.555 398.263 651.584C396.508 652.341 394.753 653.097 392.945 653.877C391.124 654.658 389.302 655.438 387.425 656.242C361.732 667.552 338.285 681.995 315.567 698.42C314.167 699.43 312.768 700.439 311.326 701.48C308.031 703.934 304.855 706.179 301.706 708.819C299.903 710.33 301.706 707.355 301.706 708.819C300.532 709.296 296.02 713.764 295.247 714.201C247.901 740.986 215.627 812.256 199.702 861.788C198.487 866.171 197.316 870.566 196.203 874.976C195.479 877.612 195.479 877.612 194.74 880.3C184.622 924.029 192.575 965.272 214.631 1003.52C218.596 1009.84 222.975 1014.18 228.5 1019.24C229.96 1020.57 231.42 1021.91 232.924 1023.29C254.661 1042.03 279.242 1052.54 308.166 1051.53C315.621 1050.8 322.506 1049.3 329.697 1047.23C331.448 1046.77 333.2 1046.32 335.004 1045.85C355.386 1039.59 372.586 1026.9 389.984 1014.93C391.457 1013.94 392.929 1012.95 394.446 1011.93C398.063 1009.46 401.571 1006.82 405.056 1004.16C402.903 1004.87 409.363 1002.03 409.363 1000.57C410.509 1000.09 413.564 997.392 414.745 996.897C420.128 992.591 421.079 989.533 426.991 984.382C429.501 982.229 432.013 980.079 434.527 977.931C436.359 976.366 436.359 976.366 438.228 974.77C445.63 968.508 453.27 962.593 461.038 956.795C462.758 955.488 464.479 954.18 466.252 952.834C486.349 938.073 504.556 929.818 529.938 933.111C539.657 935.536 546.466 941.013 553.832 947.568C555.641 949.168 555.641 949.168 557.487 950.8C559.888 952.961 562.249 955.167 564.564 957.42C571.045 963.364 575.419 966.149 584.371 966.383C592.435 966.235 592.435 966.235 596.684 961.101C597.752 949.133 595.529 939.696 588.072 930.285C586.915 928.911 585.757 927.537 584.565 926.121C580.87 921.395 579.635 917.566 579.459 911.579C580.17 910.158 580.88 908.737 581.613 907.273C588.127 906.663 591.341 906.525 596.743 910.419C598.101 911.779 599.458 913.139 600.856 914.54C609.909 922.948 616.884 926.087 629.25 927.324C636.169 926.572 639.005 924.852 644.053 920.192C641.086 904.365 632.438 894.302 620.15 884.161C616.284 881.037 616.284 881.037 611.756 881.436C612.467 876.462 613.177 871.488 613.909 866.364C623.696 867.234 631.773 869.407 640.958 872.958C649.506 876.182 656.337 878.516 665.584 877.129C672.451 873.627 672.451 873.627 673.12 867.979C671.161 857.203 664.62 851.634 656.198 845.346C596.716 805.719 517.755 808.875 450.037 821.719C404.946 830.863 348.147 845.761 314.625 879.282C310.32 879.37 306.012 879.374 301.706 879.282C299.957 875.649 299.957 875.649 299.553 870.67C334.03 831.707 396.948 814.175 445.966 803.923C448.573 792.389 447.825 782.045 446.639 770.415C446.436 768.429 446.234 766.442 446.026 764.396C442.568 732.626 436.367 702.454 426.453 672.044C425.72 669.773 424.987 667.502 424.232 665.162C423.162 662.024 423.162 662.024 422.071 658.823C421.438 656.957 420.805 655.091 420.153 653.169C416.019 645.063 410.429 646.578 403.223 649.546ZM1007.93 704.879C977.619 759.127 964.138 821.593 967.022 883.589C971.844 886 975.539 886.466 980.883 887.138C982.812 887.393 984.741 887.649 986.728 887.912C990.747 888.43 994.768 888.941 998.789 889.443C1017.62 891.961 1035.84 895.228 1050.99 907.273C1058.68 922.646 1052.15 946.659 1049.57 963.137C1048.26 969.525 1048.26 969.525 1050.99 974.02C1052.64 974.953 1054.28 975.885 1055.97 976.846C1067.97 984.376 1072.36 994.77 1076.29 1007.93C1076.76 1009.45 1077.23 1010.97 1077.71 1012.54C1080.96 1023.7 1082.18 1033.42 1081.14 1045.07C1077.58 1045.78 1074.03 1046.49 1070.37 1047.23C1065.96 1037.98 1063.1 1029.23 1060.82 1019.24C1058.28 1008.49 1054.9 1000.44 1048.84 991.245C1046.71 991.956 1044.58 992.666 1042.38 993.398C1040.37 998.531 1040.37 998.531 1039.15 1004.84C1038.35 1008.33 1038.35 1008.33 1037.54 1011.88C1036.74 1015.52 1036.74 1015.52 1035.92 1019.24C1034.87 1023.86 1033.79 1028.48 1032.69 1033.1C1032.23 1035.14 1031.76 1037.18 1031.28 1039.28C1029.3 1045.6 1026.82 1050.43 1023 1055.84C1012.59 1060.81 1002.02 1062.25 990.832 1058.89C972.192 1050.9 960.798 1033.49 950.495 1016.75C947.569 1012.18 947.569 1012.18 941.184 1008.47C935.711 1007.75 935.711 1007.75 930.419 1008.47C925.206 1013.68 924.81 1016.31 923.959 1023.54C924.605 1028.96 924.605 1028.96 925.978 1034.31C927.72 1041.69 928.496 1048.25 928.266 1055.84C924.713 1056.55 921.16 1057.26 917.5 1057.99C908.649 1046.29 900.016 1034.45 891.511 1022.5C883.894 1012.57 883.894 1012.57 873.361 1006.32C867.804 1005.87 867.804 1005.87 862.999 1009.14C857.389 1018.08 857.28 1026.22 859.366 1036.46C863.902 1044.81 869.909 1051.31 876.591 1057.99C876.86 1063.64 876.86 1063.64 876.591 1068.76C867.064 1071.53 867.064 1071.53 861.763 1068.88C849.684 1058.01 840.722 1045.52 831.594 1032.18C827.42 1025.79 827.42 1025.79 822.763 1021.39C816.444 1022.18 814.442 1023.25 809.844 1027.85C807.61 1045.72 815.238 1060.91 825.992 1074.81C828.491 1077.83 831.001 1080.84 833.528 1083.83C834.905 1085.69 836.281 1087.56 837.7 1089.48C844.265 1097.04 851.661 1103.29 859.366 1109.67C860.438 1110.56 861.511 1111.46 862.616 1112.38C880.608 1127.31 898.916 1139.79 919.653 1150.58C921.832 1151.75 924.011 1152.92 926.256 1154.13C969.868 1176.07 1016.61 1180.95 1063.21 1166.69C1084.05 1159.8 1101.04 1149.6 1117.74 1135.5C1118.96 1134.59 1120.19 1133.68 1121.45 1132.74C1142.31 1116.61 1158.1 1092.19 1169.42 1068.76C1170.87 1065.99 1170.87 1065.99 1172.35 1063.16C1197.66 1012.46 1190.54 947.533 1173.68 895.189C1164.27 867.636 1150.87 842.407 1135.23 817.918C1134.21 816.306 1133.18 814.693 1132.13 813.032C1129.61 809.194 1127.73 806.178 1125.01 802.48C1123.59 802.48 1123.24 799.25 1121.78 799.25C1121.19 797.976 1120.23 797.333 1119.62 796.02C1117.22 791.47 1113.17 789.907 1109.82 786.025C1108.15 784.085 1108.15 784.085 1106.45 782.106C1105.29 780.779 1104.13 779.453 1102.94 778.086C1101.8 776.759 1100.66 775.432 1099.48 774.065C1090.72 763.839 1090.72 763.839 1081.14 754.401C1079.72 754.401 1077.28 749.658 1077.91 750.364C1084.37 757.586 1076.83 751.441 1074.68 747.942C1071.17 744.705 1067.51 741.63 1063.78 738.656C1061.63 736.944 1059.48 735.232 1057.27 733.467C1055.2 731.849 1053.13 730.231 1050.99 728.564C1049.41 727.323 1047.83 726.082 1046.2 724.804C1028.78 710.366 1028.78 710.366 1007.93 704.879ZM648.359 763.014C648.359 768.852 649.36 772.571 653.431 776.841C689.512 805.459 738.569 816.243 781.853 828.953C783.73 829.513 785.606 830.072 787.539 830.648C789.26 831.138 790.981 831.628 792.753 832.132C794.244 832.562 795.734 832.991 797.27 833.433C801.718 834.458 801.718 834.458 807.691 831.914C793.304 820.463 777.944 811.219 762.114 801.949C758.619 799.883 755.157 797.761 751.701 795.63C702.383 764.968 702.383 764.968 648.359 763.014ZM637.594 791.004C630.751 798.043 628.981 800.309 628.981 810.383C630.932 811.296 632.884 812.209 634.894 813.15C657.085 823.74 678.514 834.322 689.269 857.751C692.094 866.404 691.681 869.866 688.865 878.61C684.219 887.1 681.253 890.714 671.968 893.53C667.712 894.626 663.42 895.577 659.125 896.508C659.471 899.351 659.471 899.351 659.823 902.252C660.081 904.753 660.339 907.253 660.605 909.83C660.88 912.303 661.155 914.776 661.438 917.324C661.223 926.994 657.908 932.174 651.185 938.897C640.015 945.237 628.743 946.264 616.063 946.029C615.746 949.218 615.746 949.218 615.423 952.472C615.101 955.231 614.779 957.99 614.448 960.832C614.148 963.58 613.848 966.328 613.539 969.159C611.756 976.173 611.756 976.173 607.551 979.15C605.369 979.808 605.369 979.808 603.144 980.479C601.012 981.545 601.012 981.545 598.838 982.633C570.868 985.019 570.868 985.019 559.249 977.09C553.319 971.849 548.014 966.03 542.839 960.05C538.724 956.223 538.724 956.223 533.108 956.938C527.24 959.154 524.567 961.33 520.383 965.946C515.65 971.041 511.086 975.345 505.446 979.403C499.221 984.446 499.221 984.446 497.506 992.322C497.66 1000.95 498.896 1003.86 504.1 1010.62C506.365 1013.59 506.365 1013.59 508.675 1016.62C515.371 1024.6 523.287 1030.3 531.822 1036.19C534.24 1037.87 534.24 1037.87 536.708 1039.59C575.658 1066.19 620.014 1086.3 667.872 1086.66C670.18 1086.67 670.18 1086.67 672.535 1086.69C681.244 1086.57 688.067 1085.87 695.728 1081.68C698.642 1076.53 698.642 1076.53 700.245 1070.22C700.943 1067.89 701.641 1065.55 702.36 1063.15C703.058 1060.65 703.756 1058.15 704.475 1055.57C705.224 1053.01 705.974 1050.45 706.746 1047.82C711.319 1032.03 715.47 1016.18 719.32 1000.21C746.561 889.43 746.561 889.43 786.159 857.751C788.342 855.628 790.505 853.484 792.619 851.292C776.774 845.866 760.927 840.654 744.832 836.024C666.368 813.319 666.368 813.319 644.053 791.004C641.922 791.004 639.79 791.004 637.594 791.004ZM872.284 915.886C865.69 917.366 865.69 917.366 859.366 915.886C855.741 910.41 855.741 910.41 852.906 905.12C836.284 907.104 820.925 909.115 805.538 915.886C806.248 917.307 806.959 918.728 807.691 920.192C813.944 921.882 820.047 923.273 826.396 924.498C828.316 924.872 830.237 925.246 832.216 925.631C867.556 932.19 903.15 934.137 939.031 933.111C941.823 933.047 944.616 932.983 947.492 932.917C965.221 932.174 982.497 929.812 999.992 926.92C1002.17 926.573 1004.34 926.225 1006.58 925.867C1008.62 925.51 1010.65 925.152 1012.75 924.784C1014.57 924.471 1016.39 924.157 1018.27 923.835C1023.58 922.162 1025.91 920.103 1029.46 915.886C998.885 900.937 962.227 902.392 928.912 902.095C924.955 902.048 920.998 901.974 917.042 901.874C911.276 901.73 905.513 901.671 899.745 901.63C897.98 901.57 896.215 901.51 894.396 901.448C881.695 901.494 878.583 904.378 872.284 915.886ZM801.231 939.57C806.664 964.638 816.296 981.984 835.362 999.21C839.748 1002.48 839.748 1002.48 844.597 1001.65C849.999 999.231 853.194 995.531 857.213 991.245C864.69 987.506 872.721 988.096 880.897 989.092C887.76 992.725 887.76 992.725 893.816 997.704C895.023 998.684 896.23 999.664 897.474 1000.67C900.597 1003.23 903.671 1005.84 906.734 1008.47C908.333 1006.43 909.932 1004.38 911.579 1002.28C916.935 995.436 922.004 991.82 930.738 990.597C941.59 990.54 949.29 991.219 958.409 997.704C964.898 1005.05 969.625 1013.2 974.558 1021.66C975.446 1023.08 976.603 1024.94 977.518 1026.4C978.517 1028 978.595 1027.48 979.672 1028.56C979.672 1029.63 981.23 1030.46 981.825 1031.79C984.538 1036.79 988.249 1037.43 992.859 1040.77C1000.32 1042.91 1000.32 1042.91 1007.93 1042.92C1013.71 1038.58 1015.33 1034.85 1016.53 1027.85C1016.84 1026.13 1017.15 1024.42 1017.48 1022.66C1017.79 1020.82 1018.1 1018.98 1018.43 1017.08C1021.6 999.782 1025.53 982.896 1030.38 965.988C1032.91 956.917 1034.31 949.094 1033.77 939.57C1023.01 940.548 1012.52 942.035 1001.91 944.077C980.938 948.064 960.353 949.799 939.031 950.336C937.37 950.383 935.709 950.43 933.997 950.479C895.385 951.435 855.309 950.46 817.75 940.832C812.051 939.582 807.044 939.337 801.231 939.57Z" fill="#F4926C"/>
<path d="M718.875 486.741C723.45 488.759 723.45 488.759 725.603 490.913C725.764 498.956 725.355 503.586 720.296 509.954C703.924 525.221 682.387 534.957 659.798 534.572C637.878 532.078 620.461 523.571 605.028 508.138C604.355 502.755 604.355 502.755 605.028 497.372C611.487 493.066 611.487 493.066 616.601 493.335C623.445 495.616 627.425 499.303 633.019 503.831C654.482 514.765 670.395 512.653 692.364 505.715C694.096 505.094 695.828 504.472 697.612 503.831C697.612 502.41 697.612 500.989 697.612 499.525C703.746 492.543 709.314 486.533 718.875 486.741Z" fill="#F49570"/>
<path d="M602.875 419.859C608.414 428.167 607.652 432.532 606.484 442.164C603.208 454.965 594.251 464.288 583.497 471.534C571.163 475.646 558.143 475.651 546.221 470.189C537.884 465.403 532.775 460.209 527.516 452.156C526.574 446.235 526.574 446.235 527.516 441.391C531.822 437.084 531.822 437.084 536.801 436.008C545.478 437.622 548.194 443.17 553.354 450.003C560.029 453.341 565.366 452.78 572.732 452.156C579.17 449.52 579.17 449.52 583.497 443.544C585.056 437.909 586.048 432.424 586.82 426.63C587.144 425.106 587.469 423.582 587.804 422.012C593.26 419.284 596.835 419.255 602.875 419.859Z" fill="#F4926C"/>
<path d="M767.454 417.168C770.185 417.434 770.185 417.434 772.971 417.706C777.278 424.166 777.278 424.166 777.412 431.029C773.677 444.431 765.183 452.814 753.997 460.769C741.12 464.808 728.753 465.041 716.317 459.423C705.275 453.052 698.875 446.047 695.459 433.451C695.459 426.319 695.459 426.319 697.881 422.013C701.918 419.859 701.918 419.859 707.167 419.59C714.422 422.775 715.72 426.682 719.236 433.518C721.176 437.401 721.176 437.401 725.334 440.179C732.981 442.204 739.767 442.527 747.243 439.751C752.345 436.51 753.716 433.813 756.15 428.337C760.915 417.839 760.915 417.839 767.454 417.168Z" fill="#F4946F"/>
<path d="M505.984 501.678C509.761 504.849 509.761 504.849 512.444 508.138C511.537 517.657 511.537 517.657 508.138 521.056C501.064 520.376 494.827 519.738 488.364 516.674C479.937 513.787 472.16 514.135 463.326 514.328C461.628 514.347 459.931 514.367 458.182 514.387C454.02 514.437 449.859 514.514 445.697 514.597C443.392 509.517 443.392 509.517 441.391 503.831C444.018 498.577 445.882 495.902 451.509 493.949C470.315 490.596 489.701 490.93 505.984 501.678Z" fill="#F4946F"/>
</svg>
