<svg xmlns="http://www.w3.org/2000/svg" width="1038.029" height="1010.104" viewBox="0 0 1038.029 1010.104" fill="#F48F68">
  <path d="M 483.599 4.715 C 496.427 11.464 507.789 19.437 516.165 31.36 C 521.612 28.746 526.438 25.958 531.506 22.613 C 543.338 15.834 555.775 15.6 569.052 17.23 C 582.305 23.255 592.591 32.615 600.272 44.952 C 602.29 50.738 602.29 50.738 602.29 57.198 C 604.466 56.487 606.642 55.777 608.884 55.044 C 626.04 50.319 640.485 53.494 656.119 61.504 C 678.848 78.126 695.989 100.162 701.334 128.251 C 702.643 147.491 702.429 164.012 694.606 181.995 C 692.439 186.248 692.439 186.248 692.722 190.691 C 695.379 193.027 698.134 195.253 700.931 197.42 C 711.375 206.367 715.144 214.167 717.071 227.631 C 717.959 242.922 713.378 256.537 704.143 268.708 C 693.796 279.852 680.068 290.119 664.682 292.587 C 660.179 293.647 660.179 293.647 658.071 297.536 C 657.477 299.025 656.882 300.514 656.27 302.048 C 655.579 303.703 654.888 305.357 654.176 307.061 C 653.139 309.676 653.139 309.676 652.081 312.343 C 647.703 323.226 643.494 332.624 636.253 341.915 C 627.612 354.392 628.695 367.097 629.205 381.781 C 629.238 385.674 629.238 385.674 629.272 389.645 C 629.487 405.86 629.487 405.86 634.587 421.076 C 663.012 448.134 716.178 455.499 752.842 464.722 C 799.33 476.444 842.333 493.155 882.197 520.12 C 884.328 521.541 886.46 522.962 888.656 524.426 C 888.656 525.847 885.426 521.465 891.886 526.848 C 893.77 527.925 891.617 526.848 895.115 529.001 C 901.091 531.632 903.016 535.701 907.723 540.162 C 909.23 541.581 910.737 542.999 912.289 544.46 C 913.86 545.976 915.432 547.491 917.05 549.052 C 919.499 551.394 919.499 551.394 921.997 553.783 C 990.145 619.448 1035.081 703.29 1038.029 799.218 C 1036.139 861.924 1011.768 917.869 966.169 961.51 C 923.862 997.269 875.109 1013.264 820.038 1009.589 C 761.331 1003.408 712.297 971.422 669.037 933.52 C 666.839 931.732 664.641 929.945 662.376 928.103 C 642.063 910.739 622.135 883.157 619.002 855.839 C 618.574 843.312 620.939 834.072 628.128 823.71 C 630.939 820.781 633.799 817.897 636.74 815.098 C 635.752 813.818 634.764 812.539 633.746 811.22 C 614.536 785.27 607.243 756.951 610.903 724.666 C 615.755 717.978 616.788 716.862 623.822 713.901 C 625.445 713.124 627.069 712.346 628.742 711.546 C 645.831 704.329 663.671 702.726 681.956 700.982 C 682.622 698.895 683.288 696.808 683.975 694.657 C 686.262 688.063 686.262 688.063 688.415 685.91 C 693.529 685.103 693.529 685.103 699.181 685.91 C 700.04 687.681 700.898 689.453 701.783 691.278 C 705.245 697.458 705.245 697.458 712.699 697.898 C 715.581 697.896 718.463 697.836 721.343 697.727 C 722.863 697.712 724.383 697.697 725.95 697.681 C 730.8 697.621 735.645 697.486 740.494 697.349 C 743.784 697.295 747.074 697.245 750.364 697.201 C 758.425 697.083 766.482 696.897 774.54 696.676 C 774.621 694.042 774.701 691.408 774.784 688.694 C 776.902 630.736 787.313 569.912 815.231 518.37 C 817.926 513.898 817.926 513.898 817.603 509.354 C 796.657 499.702 775.264 493.634 753.009 487.823 C 752.21 490.354 751.411 492.885 750.587 495.493 C 747.125 505.926 742.999 516.036 738.826 526.202 C 733.566 539.229 729.197 552.511 725.029 565.923 C 723.705 570.072 722.222 574.169 720.712 578.254 C 714.388 581.416 710.63 581.034 703.487 580.407 C 699.88 579.2 696.305 577.896 692.755 576.53 C 647.545 559.709 600.546 550.892 552.903 544.477 C 550.04 544.091 550.04 544.091 547.12 543.697 C 518.985 540.125 490.813 539.06 462.472 539.094 C 460.944 539.093 459.415 539.092 457.84 539.091 C 429.739 539.11 402.017 540.956 374.059 543.804 C 368.05 544.383 362.043 544.914 356.027 545.419 C 352.605 545.735 352.605 545.735 349.113 546.058 C 343.915 545.957 343.915 545.957 339.609 541.651 C 338.4 536.907 337.404 532.108 336.514 527.294 C 336.108 525.124 336.108 525.124 335.695 522.91 C 335.122 519.829 334.558 516.747 334.001 513.663 C 333.17 509.062 332.313 504.466 331.451 499.871 C 327.793 480.133 324.843 460.377 322.384 440.454 C 304.198 444.85 286.197 449.226 268.556 455.526 C 269.859 467.422 272.904 477.874 276.765 489.168 C 289.925 529.427 296.79 572.475 296.547 614.857 C 298.331 614.552 300.115 614.248 301.953 613.934 C 321.572 610.827 340.6 609.865 360.468 610.013 C 362.703 610.018 362.703 610.018 364.983 610.024 C 389.018 610.096 412.695 611.421 436.5 614.857 C 444.777 602.739 451.905 591.086 457.089 577.312 C 460.124 569.837 462.237 565.445 467.72 559.414 C 499.591 548.032 533.894 565.386 562.592 578.792 C 608.17 600.794 665.662 630.255 699.181 668.685 C 698.535 677.944 698.535 677.944 694.875 681.604 C 690.983 681.595 687.091 681.57 683.2 681.461 C 648.819 680.556 648.819 680.556 618.439 694.657 C 604.564 709.269 596.233 727.102 589.641 745.929 C 588.925 747.937 588.209 749.945 587.472 752.014 C 574.542 789.107 564.767 827.231 554.952 865.239 C 543.24 910.467 543.24 910.467 535.544 916.295 C 516.031 923.397 493.991 923.63 473.776 920.332 C 471.909 920.035 470.041 919.739 468.118 919.434 C 434.199 913.67 397.611 900.828 369.526 880.465 C 365.347 877.374 365.347 877.374 360.224 874.46 C 339.502 861.82 318.333 843.599 307.312 821.557 C 305.951 809.352 306.14 798.846 313.006 788.411 C 318.305 782.135 324.496 777.02 330.997 772.035 C 320.609 774.919 313.41 779.203 304.89 785.761 C 301.618 788.251 301.618 788.251 298.279 790.791 C 296.286 792.417 294.294 794.044 292.24 795.72 C 290.012 797.417 290.012 797.417 287.738 799.148 C 281.735 806.72 281.598 813.871 280.735 823.306 C 280.43 826.127 280.43 826.127 280.119 829.004 C 279.686 833.037 279.271 837.071 278.87 841.107 C 278.03 849.556 277.106 857.994 276.186 866.433 C 275.725 870.656 275.269 874.88 274.817 879.103 C 271.101 913.667 266.283 948.098 259.674 982.234 C 259.333 984.023 258.991 985.811 258.639 987.654 C 256.169 999.735 256.169 999.735 251.331 1004.573 C 245.948 1005.111 245.948 1005.111 240.565 1004.573 C 236.259 1000.266 236.259 1000.266 236.13 995.277 C 237.839 977.903 240.501 960.803 243.526 943.612 C 248.292 915.928 252.3 888.207 255.637 860.313 C 255.862 858.447 256.087 856.582 256.319 854.659 C 257.557 844.346 258.766 834.03 259.944 823.71 C 258.123 825.115 256.302 826.519 254.426 827.966 C 249.369 831.865 244.305 835.755 239.237 839.64 C 235.164 842.763 231.115 845.906 227.092 849.094 C 210.624 861.978 192.617 870.827 173.146 878.211 C 170.983 879.033 170.983 879.033 168.776 879.872 C 136.813 891.568 106.845 886.67 76.524 872.694 C 43.998 855.325 20.477 825.874 8.028 791.413 C -5.604 744.642 -1.312 698.659 16.64 653.613 C 17.527 651.371 17.527 651.371 18.431 649.084 C 40.697 593.794 77.589 538.336 126.45 502.895 C 125.716 503.429 129.68 499.665 130.756 498.588 C 130.756 500.052 130.756 497.167 130.756 498.588 C 137.01 493.834 143.831 489.929 150.553 485.87 C 153.22 484.255 155.879 482.626 158.53 480.986 C 213.944 446.704 273.377 427.73 337.456 416.77 C 339.545 416.406 341.635 416.042 343.787 415.667 C 349.701 414.651 355.619 413.679 361.544 412.732 C 363.283 412.447 365.021 412.162 366.812 411.868 C 376.146 410.476 384.195 409.8 393.437 412.463 C 396.398 417.981 396.398 417.981 397.744 423.229 C 390.866 431.091 383.182 431.787 373.252 433.322 C 371.625 433.601 369.999 433.88 368.323 434.167 C 360.067 435.531 352.304 436.276 343.915 436.148 C 344.154 437.674 344.392 439.201 344.638 440.774 C 353.378 496.868 353.378 496.868 356.834 524.426 C 358.685 524.14 360.537 523.854 362.444 523.559 C 366.262 522.989 366.262 522.989 370.157 522.407 C 372.63 522.032 375.103 521.658 377.651 521.272 C 405.014 517.685 432.369 517.528 459.915 517.563 C 461.978 517.565 464.041 517.567 466.167 517.569 C 543.345 517.732 622.266 526.999 695.276 553.412 C 699.534 554.875 699.534 554.875 705.641 554.57 C 706.041 553.389 706.441 552.209 706.853 550.992 C 720.926 509.658 720.926 509.658 729.653 492.12 C 731.899 487.61 731.899 487.61 731.478 481.363 C 727.723 480.422 727.723 480.422 723.892 479.462 C 657.22 462.512 657.22 462.512 631.105 445.66 C 624.629 441.721 624.629 441.721 617.362 440.454 C 611.461 443.221 611.461 443.221 605.386 447.317 C 557.387 476.534 498.909 481.29 445.112 468.444 C 431.784 465.187 419.706 461.473 408.509 453.373 C 406.087 447.855 406.087 447.855 406.356 442.607 C 408.644 438.57 408.644 438.57 412.815 436.148 C 421.351 436.361 428.619 439.336 436.5 442.338 C 482.552 459.366 531.058 456.653 576.453 438.301 C 587.561 433.121 598.081 427.128 608.75 421.076 C 608.75 406.865 608.75 392.654 608.75 378.013 C 599.365 384.243 599.365 384.243 590.373 391.008 C 554.95 419.245 510.952 428.475 466.644 425.382 C 426.758 420.621 387.146 404.209 359.381 374.715 C 356.075 371.227 356.075 371.227 350.375 367.248 C 343.873 367.159 343.873 367.159 337.456 369.401 C 335.294 369.961 333.132 370.522 330.904 371.1 C 328.67 371.694 326.436 372.288 324.134 372.9 C 305.121 377.322 288.108 376.768 270.709 367.248 C 256.944 358.522 245.862 348.688 240.565 332.798 C 238.664 314.705 240.896 302.476 251.331 287.582 C 256.302 281.765 256.302 281.765 254.777 276.675 C 254.137 275.001 253.496 273.327 252.837 271.602 C 252.152 269.748 251.468 267.894 250.763 265.983 C 249.646 263.086 249.646 263.086 248.505 260.13 C 240.143 238.088 238.022 219.076 238.009 195.536 C 237.982 193.132 237.956 190.729 237.929 188.252 C 237.858 147.815 249.678 107.216 277.169 76.576 C 277.976 75.768 279.848 73.896 281.206 72.539 C 282.282 71.462 282.282 71.462 283.359 70.385 C 295.128 49.755 321.873 40.844 343.74 34.46 C 348.494 33.456 352.777 33.235 357.633 33.227 C 359.403 33.224 361.172 33.222 362.995 33.219 C 364.825 33.227 366.656 33.236 368.542 33.244 C 370.364 33.236 372.186 33.227 374.063 33.219 C 382.95 33.233 391.231 33.424 399.897 35.666 C 400.629 33.868 400.629 33.868 401.377 32.033 C 417.026 4.461 454.73 -7.356 483.599 4.715 Z M 423.581 33.513 C 420.638 37.971 420.638 37.971 419.275 42.126 C 423.017 46.262 426.182 48.831 431.117 51.546 C 437.752 55.859 439.981 58.443 442.959 65.81 C 444.613 76.838 444.76 84.612 438.518 94.07 C 430.576 99.14 426.397 99.432 417.122 98.107 C 411.066 94.877 412.95 95.146 408.24 91.917 C 406.819 91.917 406.087 90.84 402.857 88.687 C 400.704 86.534 399.179 85.906 397.744 83.035 C 397.011 81.725 396.278 80.415 395.523 79.065 C 393.224 73.947 392.583 69.768 392.092 64.195 C 391.931 62.474 391.77 60.754 391.604 58.981 C 391.498 57.682 391.393 56.383 391.284 55.044 C 368.059 48.117 345.711 53.263 324.537 63.657 C 319.831 66.281 315.912 68.967 311.619 72.269 C 309.931 73.424 308.244 74.579 306.505 75.768 C 305.35 76.745 304.196 77.722 303.006 78.729 C 301.93 80.515 301.93 80.515 300.853 81.592 C 299.777 83.745 299.777 83.745 299.078 84.751 C 279.398 95.634 268.297 126.581 262.287 147.37 C 253.418 182.077 254.218 219.444 266.403 253.132 C 267.05 255.15 267.696 257.168 268.363 259.247 C 271.615 268.551 271.615 268.551 278.91 274.63 C 283.497 276.113 283.497 276.113 290.087 276.816 C 291.568 280.719 291.568 280.719 292.24 285.429 C 288.528 291.461 285.294 292.012 278.38 293.772 C 269.555 296.559 267.054 299.334 262.097 306.96 C 258.634 313.885 258.935 320.98 259.944 328.491 C 266.172 340.486 275.32 349.301 287.934 354.329 C 304.488 355.986 320.316 356.365 335.034 347.811 C 341.87 344.682 347.139 343.637 354.681 343.563 C 359.513 347.356 362.779 350.532 366.658 355.136 C 395.189 386.198 435.365 404.133 477.51 406.349 C 525.69 407.58 565.775 389.464 600.541 357.02 C 618.962 337.491 630.05 317.992 637.881 292.474 C 642.005 279.694 642.005 279.694 648.44 275.79 C 650.263 275.418 652.087 275.046 653.965 274.663 C 655.511 274.233 657.057 273.803 658.65 273.36 C 660.168 272.946 661.687 272.532 663.251 272.106 C 676.867 267.583 688.449 258.704 695.009 245.731 C 698.116 233.926 697.436 225.464 691.376 214.51 C 684.271 208.34 680.631 207.612 671.19 207.916 C 667.993 209.557 664.857 211.322 661.771 213.165 C 645.721 221.977 624.692 222.004 607.253 217.025 C 596.518 211.902 587.335 204.862 580.759 194.998 C 575.429 197.367 571.53 199.823 567.033 203.61 C 554.962 212.807 541.673 214.104 526.931 212.223 C 520.136 209.912 513.936 206.86 507.553 203.61 C 504.356 202.544 504.356 202.544 501.094 201.457 C 498.806 197.42 498.806 197.42 496.787 192.844 C 495.366 190.713 493.945 188.581 492.481 186.385 C 486.662 188.945 482.452 191.813 477.409 195.805 C 456.843 210.458 432.931 212.549 408.509 210.069 C 394.63 206.804 383.402 201.098 371.906 192.844 C 370.56 192.037 370.56 190.96 370.56 192.037 C 370.56 190.96 368.407 189.884 367.6 189.213 C 366.09 188.147 364.58 186.407 363.024 185.309 C 351.527 175.311 343.722 162.645 342.031 147.36 C 341.943 144.606 341.854 141.853 341.762 139.016 C 347.091 137.951 347.091 137.951 352.528 136.863 C 355.734 142.147 358.881 147.433 361.839 152.86 C 372.669 172.287 385.043 184.569 406.524 191.423 C 426.016 195.827 444.744 193.901 462.337 184.232 C 471.6 177.201 480.693 169.786 487.031 159.942 C 490.328 156.241 490.328 156.241 496.115 155.703 C 497.758 155.881 499.401 156.058 501.094 156.241 C 501.839 158.619 501.839 158.619 502.599 161.044 C 507.482 175.655 511.75 185.361 525.316 193.652 C 534.148 195.659 541.876 195.203 550.615 192.844 C 561.528 185.973 565.948 179.143 569.994 167.007 C 570.85 162.726 571.618 158.422 572.147 154.088 C 579.607 153.022 579.607 153.022 587.219 151.935 C 587.479 153.7 587.74 155.466 588.009 157.284 C 588.55 160.765 588.55 160.765 589.103 164.316 C 589.627 167.763 589.627 167.763 590.162 171.28 C 591.379 177.077 590.923 183.149 595.831 186.385 C 596.908 188.171 596.908 188.171 597.984 189.248 C 599.061 190.324 599.061 190.324 602.29 192.844 C 613.971 200.949 625.053 205.199 639.381 202.811 C 656.514 198.072 668.729 187.491 677.65 172.255 C 685.321 155.17 684.755 135.934 678.188 118.562 C 674.429 110.475 670.064 103.121 664.731 95.954 C 662.999 93.223 662.999 93.223 661.232 90.436 C 650.91 79.843 638.109 73.839 623.283 73.211 C 613.462 73.719 607.895 76.901 600.137 83.035 C 596.593 84.576 593.016 86.055 589.372 87.341 C 586.134 84.827 586.134 84.827 582.912 80.882 C 582.584 75.524 582.584 75.524 583.047 69.444 C 583.353 58.416 581.899 52.723 574.3 44.279 C 567.661 37.862 562.015 35.844 552.769 35.666 C 541.605 39.309 532.925 44.734 526.931 55.044 C 525.204 62.989 525.204 62.989 524.778 70.116 C 520.515 70.116 516.252 70.116 511.859 70.116 C 510.881 67.543 510.881 67.543 509.883 64.919 C 501.764 44.385 495.146 31.983 474.398 22.588 C 455.558 15.884 439.686 22.559 423.581 33.513 Z M 410.662 63.657 C 412.975 69.934 414.491 73.945 419.275 78.729 C 421.406 78.729 423.538 78.729 425.734 78.729 C 425.152 73.481 425.152 73.481 423.581 67.963 C 417.52 63.06 417.52 63.06 410.662 63.657 Z M 232.273 464.786 C 229.817 465.795 229.817 465.795 227.312 466.824 C 225.558 467.581 223.803 468.338 221.995 469.117 C 220.173 469.898 218.352 470.678 216.475 471.482 C 190.782 482.792 167.335 497.235 144.617 513.66 C 143.217 514.67 141.818 515.68 140.376 516.72 C 137.081 519.174 133.904 521.419 130.756 524.059 C 130.756 522.595 128.953 525.57 130.756 524.059 C 129.582 524.536 125.07 529.004 124.297 529.442 C 76.951 556.226 44.677 627.496 28.752 677.029 C 27.536 681.411 26.366 685.807 25.253 690.216 C 24.529 692.852 24.529 692.852 23.79 695.54 C 13.672 739.269 21.624 780.512 43.681 818.765 C 47.646 825.083 52.025 829.421 57.55 834.476 C 59.01 835.814 60.47 837.151 61.974 838.53 C 83.711 857.274 108.291 867.782 137.215 866.773 C 144.671 866.036 151.556 864.544 158.747 862.466 C 160.498 862.011 162.249 861.556 164.054 861.087 C 184.436 854.834 201.635 842.137 219.034 830.17 C 220.507 829.181 221.979 828.193 223.496 827.174 C 227.112 824.697 230.621 822.063 234.106 819.404 C 231.953 820.114 238.412 817.271 238.412 815.807 C 239.559 815.327 242.614 812.632 243.795 812.137 C 249.178 807.831 250.129 804.773 256.041 799.622 C 258.551 797.469 261.063 795.319 263.577 793.171 C 265.409 791.606 265.409 791.606 267.278 790.01 C 274.68 783.748 282.32 777.833 290.087 772.035 C 291.808 770.728 293.529 769.421 295.302 768.074 C 315.399 753.313 333.606 745.059 358.987 748.351 C 368.707 750.776 375.516 756.253 382.882 762.809 C 384.691 764.408 384.691 764.408 386.537 766.04 C 388.938 768.201 391.299 770.407 393.613 772.66 C 400.094 778.604 404.469 781.389 413.421 781.623 C 421.485 781.476 421.485 781.475 425.734 776.341 C 426.802 764.374 424.579 754.936 417.122 745.525 C 415.964 744.151 414.807 742.777 413.614 741.362 C 409.92 736.635 408.685 732.807 408.509 726.82 C 409.22 725.398 409.93 723.977 410.662 722.513 C 417.176 721.904 420.39 721.766 425.793 725.659 C 427.15 727.019 428.508 728.379 429.906 729.78 C 438.959 738.188 445.934 741.328 458.3 742.564 C 465.219 741.812 468.055 740.092 473.103 735.432 C 470.135 719.605 461.488 709.542 449.2 699.401 C 445.334 696.278 445.334 696.278 440.806 696.676 C 441.517 691.702 442.227 686.728 442.959 681.604 C 452.746 682.474 460.823 684.647 470.008 688.198 C 478.556 691.422 485.387 693.757 494.634 692.37 C 501.501 688.868 501.501 688.868 502.17 683.219 C 500.211 672.443 493.67 666.874 485.248 660.586 C 425.766 620.96 346.805 624.115 279.087 636.959 C 233.996 646.103 177.197 661.001 143.675 694.523 C 139.369 694.611 135.061 694.614 130.756 694.523 C 129.007 690.889 129.007 690.889 128.603 685.91 C 163.08 646.947 225.997 629.415 275.015 619.163 C 277.622 607.629 276.875 597.285 275.688 585.655 C 275.486 583.669 275.284 581.682 275.075 579.636 C 271.618 547.866 265.417 517.694 255.503 487.284 C 254.77 485.013 254.037 482.742 253.281 480.402 C 252.212 477.264 252.212 477.264 251.121 474.063 C 250.488 472.197 249.855 470.331 249.203 468.409 C 245.069 460.303 239.479 461.819 232.273 464.786 Z M 836.981 520.12 C 806.669 574.367 793.188 636.834 796.072 698.829 C 800.894 701.24 804.589 701.706 809.932 702.378 C 811.861 702.634 813.79 702.889 815.778 703.152 C 819.797 703.67 823.817 704.181 827.839 704.683 C 846.673 707.201 864.89 710.468 880.044 722.513 C 887.73 737.886 881.2 761.899 878.622 778.377 C 877.308 784.765 877.308 784.765 880.044 789.26 C 881.687 790.193 883.33 791.125 885.023 792.086 C 897.016 799.617 901.413 810.011 905.343 823.172 C 905.81 824.691 906.276 826.211 906.757 827.777 C 910.013 838.938 911.228 848.655 910.187 860.313 C 906.635 861.024 903.082 861.734 899.422 862.466 C 895.011 853.225 892.153 844.473 889.867 834.476 C 887.329 823.728 883.95 815.679 877.891 806.485 C 875.759 807.196 873.627 807.906 871.431 808.638 C 869.421 813.771 869.421 813.771 868.201 820.077 C 867.402 823.566 867.402 823.566 866.587 827.125 C 865.787 830.764 865.787 830.764 864.972 834.476 C 863.917 839.101 862.841 843.722 861.742 848.337 C 861.276 850.377 860.809 852.417 860.329 854.518 C 858.348 860.839 855.871 865.673 852.053 871.079 C 841.64 876.049 831.07 877.486 819.882 874.132 C 801.242 866.143 789.847 848.733 779.545 831.995 C 776.619 827.417 776.619 827.417 770.234 823.71 C 764.761 822.992 764.761 822.992 759.469 823.71 C 754.256 828.923 753.86 831.554 753.009 838.782 C 753.655 844.198 753.655 844.198 755.028 849.548 C 756.769 856.929 757.546 863.486 757.315 871.079 C 753.763 871.789 750.21 872.5 746.55 873.232 C 737.699 861.531 729.066 849.694 720.561 837.739 C 712.944 827.809 712.944 827.809 702.411 821.557 C 696.854 821.114 696.854 821.114 692.049 824.383 C 686.439 833.318 686.33 841.458 688.415 851.701 C 692.952 860.055 698.958 866.55 705.641 873.232 C 705.91 878.884 705.91 878.884 705.641 883.998 C 696.114 886.769 696.114 886.769 690.813 884.124 C 678.734 873.25 669.772 860.762 660.644 847.42 C 656.47 841.035 656.47 841.035 651.812 836.629 C 645.494 837.419 643.492 838.49 638.894 843.088 C 636.66 860.956 644.287 876.153 655.042 890.053 C 657.541 893.07 660.051 896.077 662.578 899.07 C 663.955 900.935 665.331 902.8 666.75 904.721 C 673.315 912.282 680.711 918.53 688.415 924.907 C 689.488 925.802 690.561 926.698 691.666 927.621 C 709.657 942.547 727.965 955.032 748.703 965.816 C 750.882 966.988 753.061 968.159 755.305 969.366 C 798.918 991.311 845.662 996.188 892.264 981.931 C 913.101 975.036 930.089 964.841 946.79 950.745 C 948.014 949.831 949.238 948.918 950.5 947.977 C 971.364 931.848 987.149 907.431 998.465 883.998 C 999.918 881.229 999.918 881.229 1001.401 878.405 C 1026.714 827.704 1019.593 762.773 1002.729 710.429 C 993.316 682.876 979.92 657.647 964.285 633.159 C 963.259 631.546 962.232 629.933 961.175 628.272 C 958.658 624.434 956.776 621.418 954.057 617.72 C 952.636 617.72 952.292 614.49 950.828 614.49 C 950.236 613.216 949.284 612.573 948.674 611.26 C 946.268 606.71 942.222 605.147 938.868 601.265 C 937.198 599.325 937.198 599.325 935.495 597.346 C 934.338 596.019 933.18 594.693 931.988 593.326 C 930.847 591.999 929.706 590.672 928.531 589.305 C 919.768 579.079 919.768 579.079 910.187 569.641 C 908.766 569.641 906.326 564.898 906.958 565.604 C 913.417 572.826 905.881 566.681 903.728 563.182 C 900.22 559.945 896.561 556.87 892.828 553.897 C 890.68 552.184 888.531 550.472 886.318 548.707 C 884.247 547.089 882.177 545.471 880.044 543.804 C 878.462 542.563 876.88 541.323 875.25 540.044 C 857.831 525.606 857.831 525.606 836.981 520.12 Z M 477.409 578.254 C 477.409 584.092 478.41 587.811 482.481 592.081 C 518.562 620.7 567.619 631.483 610.903 644.193 C 612.779 644.753 614.656 645.312 616.589 645.889 C 618.31 646.378 620.03 646.868 621.803 647.373 C 623.294 647.802 624.784 648.231 626.32 648.673 C 630.767 649.698 630.767 649.698 636.74 647.154 C 622.354 635.704 606.994 626.46 591.164 617.189 C 587.669 615.123 584.207 613.001 580.751 610.87 C 531.432 580.208 531.432 580.208 477.409 578.254 Z M 466.644 606.245 C 459.801 613.283 458.031 615.55 458.031 625.623 C 459.982 626.536 461.933 627.449 463.944 628.39 C 486.135 638.98 507.564 649.562 518.319 672.991 C 521.144 681.644 520.731 685.106 517.915 693.85 C 513.269 702.34 510.303 705.954 501.018 708.77 C 496.762 709.866 492.47 710.817 488.175 711.748 C 488.52 714.591 488.52 714.591 488.873 717.492 C 489.131 719.993 489.389 722.494 489.655 725.07 C 489.93 727.543 490.205 730.016 490.488 732.564 C 490.272 742.234 486.958 747.414 480.235 754.137 C 469.064 760.478 457.793 761.504 445.112 761.27 C 444.796 764.459 444.796 764.459 444.473 767.712 C 444.151 770.471 443.829 773.23 443.497 776.072 C 443.198 778.82 442.898 781.568 442.589 784.399 C 440.806 791.413 440.806 791.413 436.601 794.391 C 434.419 795.048 434.419 795.048 432.194 795.72 C 430.062 796.785 430.062 796.785 427.887 797.873 C 399.918 800.259 399.918 800.259 388.298 792.33 C 382.369 787.09 377.064 781.27 371.889 775.29 C 367.774 771.463 367.774 771.463 362.158 772.178 C 356.29 774.394 353.617 776.57 349.433 781.186 C 344.7 786.281 340.135 790.586 334.496 794.643 C 328.271 799.686 328.271 799.686 326.556 807.562 C 326.71 816.19 327.946 819.098 333.15 825.863 C 335.415 828.832 335.415 828.832 337.725 831.86 C 344.421 839.844 352.336 845.54 360.871 851.432 C 363.29 853.112 363.29 853.112 365.757 854.826 C 404.708 881.43 449.064 901.536 496.922 901.896 C 499.23 901.914 499.23 901.914 501.585 901.932 C 510.294 901.81 517.116 901.112 524.778 896.916 C 527.692 891.774 527.692 891.774 529.294 885.461 C 529.993 883.127 530.691 880.792 531.41 878.387 C 532.108 875.886 532.806 873.386 533.525 870.81 C 534.274 868.251 535.023 865.692 535.795 863.056 C 540.369 847.273 544.519 831.424 548.37 815.451 C 575.61 704.67 575.61 704.67 615.209 672.991 C 617.392 670.868 619.555 668.724 621.669 666.532 C 605.824 661.106 589.977 655.895 573.881 651.264 C 495.418 628.559 495.418 628.559 473.103 606.245 C 470.971 606.245 468.84 606.245 466.644 606.245 Z M 701.334 731.126 C 694.74 732.606 694.74 732.606 688.415 731.126 C 684.79 725.65 684.79 725.65 681.956 720.36 C 665.334 722.345 649.975 724.355 634.587 731.126 C 635.298 732.547 636.008 733.968 636.74 735.432 C 642.993 737.122 649.097 738.514 655.446 739.738 C 657.366 740.112 659.287 740.486 661.265 740.872 C 696.606 747.43 732.199 749.378 768.081 748.351 C 770.873 748.287 773.665 748.223 776.542 748.157 C 794.271 747.414 811.547 745.052 829.041 742.161 C 831.215 741.813 833.389 741.465 835.629 741.107 C 837.666 740.75 839.702 740.392 841.8 740.024 C 843.622 739.711 845.444 739.398 847.32 739.075 C 852.634 737.402 854.964 735.343 858.512 731.126 C 827.935 716.177 791.277 717.632 757.962 717.335 C 754.005 717.288 750.048 717.214 746.092 717.114 C 740.325 716.971 734.563 716.911 728.795 716.87 C 727.03 716.81 725.265 716.75 723.446 716.688 C 710.745 716.734 707.633 719.618 701.334 731.126 Z M 630.281 754.81 C 635.714 779.879 645.346 797.224 664.411 814.45 C 668.798 817.72 668.798 817.72 673.646 816.889 C 679.049 814.471 682.244 810.771 686.262 806.485 C 693.74 802.746 701.77 803.336 709.947 804.332 C 716.81 807.965 716.81 807.965 722.865 812.945 C 724.073 813.924 725.28 814.904 726.524 815.914 C 729.647 818.469 732.721 821.084 735.784 823.71 C 737.383 821.667 738.982 819.625 740.629 817.52 C 745.985 810.676 751.054 807.06 759.788 805.838 C 770.64 805.78 778.34 806.46 787.459 812.945 C 793.948 820.292 798.675 828.442 803.608 836.898 C 804.496 838.319 805.653 840.181 806.568 841.645 C 807.567 843.242 807.645 842.721 808.721 843.798 C 808.721 844.875 810.28 845.701 810.874 847.028 C 813.588 852.027 817.299 852.668 821.909 856.007 C 829.371 858.15 829.371 858.15 836.981 858.16 C 842.763 853.825 844.378 850.091 845.577 843.088 C 845.89 841.375 846.203 839.661 846.525 837.896 C 846.839 836.057 847.154 834.218 847.478 832.323 C 850.647 815.022 854.581 798.136 859.428 781.228 C 861.956 772.157 863.363 764.334 862.819 754.81 C 852.055 755.789 841.573 757.275 830.956 759.317 C 809.988 763.304 789.402 765.04 768.081 765.576 C 766.42 765.623 764.759 765.67 763.047 765.719 C 724.435 766.675 684.359 765.7 646.8 756.072 C 641.101 754.822 636.094 754.577 630.281 754.81 Z" fill="currentColor" fill-rule="nonzero"></path>
</svg>